<svg xmlns="http://www.w3.org/2000/svg" viewBox="0 0 620.23 288.5"><g id="back_up" data-name="back up"><polygon points="130.5 54.58 130.5 44.82 120.64 44.82 120.64 54.58 120.64 64.33 130.5 64.33 130.5 54.58" style="fill:none"/><polygon points="51.63 83.84 51.63 93.6 61.49 93.6 61.49 83.84 61.49 74.09 51.63 74.09 51.63 83.84" style="fill:none"/><polygon points="436.13 44.82 426.27 44.82 426.27 54.58 426.27 64.33 436.13 64.33 436.13 54.58 436.13 44.82" style="fill:none"/><polygon points="61.49 44.82 51.63 44.82 51.63 54.58 51.63 64.33 61.49 64.33 61.49 54.58 61.49 44.82" style="fill:none"/><polygon points="209.37 64.33 199.51 64.33 199.51 74.09 209.37 74.09 219.23 74.09 229.09 74.09 229.09 64.33 219.23 64.33 209.37 64.33" style="fill:none"/><polygon points="600.94 172.77 591.08 172.77 591.08 182.53 581.22 182.53 581.22 192.28 581.22 202.04 591.08 202.04 600.94 202.04 600.94 192.28 610.8 192.28 610.8 182.53 610.8 172.77 600.94 172.77" style="fill:#34e890"/><polygon points="571.36 211.79 571.36 221.55 571.36 231.31 571.36 241.06 571.36 250.82 571.36 260.57 571.36 270.33 571.36 280.09 571.36 289.84 581.22 289.84 581.22 280.09 581.22 270.33 581.22 260.57 581.22 250.82 581.22 241.06 581.22 231.31 581.22 221.55 581.22 211.79 581.22 202.04 571.36 202.04 571.36 211.79" style="fill:#34e890"/><polygon points="571.36 182.53 561.51 182.53 561.51 172.77 551.65 172.77 541.79 172.77 541.79 182.53 541.79 192.28 551.65 192.28 551.65 202.04 561.51 202.04 571.36 202.04 571.36 192.28 571.36 182.53" style="fill:#34e890"/><path d="M554.44,122.87V74.09h19.72V44.82H564.3V35.06h-9.86V25.31h-9.85V15.55H515v9.76h-9.86v9.75h-9.86v9.76h-9.86V74.09h19.72v48.78h49.29Zm-19.71-9.76H515V64.33H495.29V54.58h9.86V44.82H515V35.06h9.86V25.31h9.86v9.75h9.86v9.76h9.85v9.76h9.86v9.75H544.59v48.78Z" style="fill:#34e890"/><polygon points="522.07 231.31 512.21 231.31 502.35 231.31 502.35 241.06 502.35 250.82 512.21 250.82 512.21 260.57 522.07 260.57 522.07 270.33 522.07 280.09 522.07 289.84 531.93 289.84 531.93 280.09 531.93 270.33 531.93 260.57 531.93 250.82 531.93 241.06 522.07 241.06 522.07 231.31" style="fill:#34e890"/><path d="M455.85,15.55H396.7V122.87h39.43V93.6h19.72V74.09h9.86V25.31h-9.86Zm0,19.51V64.33H446V83.84H426.27v29.27H406.56V25.31H446v9.75Z" style="fill:#749af7"/><path d="M426.27,64.33V44.82h9.86V64.33Z" style="fill:#363c41"/><polygon points="423.48 260.57 423.48 270.33 423.48 280.09 423.48 289.84 433.34 289.84 433.34 280.09 433.34 270.33 433.34 260.57 433.34 250.82 423.48 250.82 423.48 260.57" style="fill:#34e890"/><path d="M396.7,93.6v-78h-69v97.56h9.86v9.76h49.3v-9.76h9.86V93.6ZM377,103.36v9.75H347.4v-9.75h-9.86v-78h19.72V93.6h9.86V25.31h19.72v78.05Z" style="fill:#a57aff"/><polygon points="403.76 280.09 403.76 289.84 413.62 289.84 413.62 280.09 413.62 270.33 403.76 270.33 403.76 280.09" style="fill:#34e890"/><polygon points="334.74 202.04 334.74 211.79 324.89 211.79 324.89 221.55 324.89 231.31 334.74 231.31 344.6 231.31 344.6 221.55 354.46 221.55 354.46 211.79 354.46 202.04 344.6 202.04 334.74 202.04" style="fill:#34e890"/><polygon points="315.03 241.06 315.03 250.82 315.03 260.57 315.03 270.33 315.03 280.09 315.03 289.84 324.89 289.84 324.89 280.09 324.89 270.33 324.89 260.57 324.89 250.82 324.89 241.06 324.89 231.31 315.03 231.31 315.03 241.06" style="fill:#34e890"/><polygon points="315.03 211.79 305.17 211.79 305.17 202.04 295.31 202.04 285.45 202.04 285.45 211.79 285.45 221.55 295.31 221.55 295.31 231.31 305.17 231.31 315.03 231.31 315.03 221.55 315.03 211.79" style="fill:#34e890"/><polygon points="288.25 122.87 298.11 122.87 307.96 122.87 307.96 113.11 307.96 103.36 307.96 93.6 307.96 83.84 298.11 83.84 298.11 74.09 288.25 74.09 288.25 64.33 298.11 64.33 298.11 54.58 307.96 54.58 307.96 44.82 307.96 35.06 307.96 25.31 307.96 15.55 298.11 15.55 288.25 15.55 278.39 15.55 268.53 15.55 258.67 15.55 248.81 15.55 238.95 15.55 229.09 15.55 229.09 25.31 229.09 35.06 229.09 44.82 229.09 54.58 229.09 64.33 229.09 74.09 229.09 83.84 229.09 93.6 229.09 103.36 229.09 113.11 229.09 122.87 238.95 122.87 248.81 122.87 258.67 122.87 268.53 122.87 268.53 113.11 278.39 113.11 278.39 103.36 268.53 103.36 268.53 93.6 258.67 93.6 258.67 103.36 258.67 113.11 248.81 113.11 238.95 113.11 238.95 103.36 238.95 93.6 238.95 83.84 238.95 74.09 238.95 64.33 238.95 54.58 238.95 44.82 238.95 35.06 238.95 25.31 248.81 25.31 258.67 25.31 258.67 35.06 258.67 44.82 268.53 44.82 268.53 35.06 278.39 35.06 278.39 25.31 288.25 25.31 298.11 25.31 298.11 35.06 298.11 44.82 288.25 44.82 288.25 54.58 278.39 54.58 278.39 64.33 268.53 64.33 268.53 74.09 278.39 74.09 278.39 83.84 288.25 83.84 288.25 93.6 298.11 93.6 298.11 103.36 298.11 113.11 288.25 113.11 278.39 113.11 278.39 122.87 288.25 122.87" style="fill:#ff88d0"/><path d="M229.09,93.6V74.09H199.51V64.33h29.58v-39h-9.86V15.55H169.94v9.76h-9.86v87.8h9.86v9.76h49.29v-9.76h9.86V93.6Zm-19.72,9.76v9.75H179.8v-9.75h-9.86V35.06h9.86V25.31h29.57v9.75h9.86V54.58H199.51V44.82h-9.86V93.6h9.86V83.84h19.72v19.52Z" style="fill:#ea5757"/><path d="M160.08,93.6V25.31h-9.86V15.55h-49.3v9.76H91.06v97.56h69V93.6Zm-9.86,19.51H130.5V93.6h-9.86v19.51H100.92v-78h9.86V25.31h29.58v9.75h9.86v78.05Z" style="fill:#f2994a"/><path d="M120.64,54.58V44.82h9.86V64.33h-9.86Z" style="fill:#363c41"/><polygon points="137.56 250.82 137.56 260.57 137.56 270.33 137.56 280.09 137.56 289.84 147.42 289.84 147.42 280.09 147.42 270.33 147.42 260.57 147.42 250.82 147.42 241.06 137.56 241.06 137.56 250.82" style="fill:#34e890"/><polygon points="107.98 270.33 107.98 280.09 107.98 289.84 117.84 289.84 117.84 280.09 117.84 270.33 117.84 260.57 107.98 260.57 107.98 270.33" style="fill:#34e890"/><path d="M91.06,93.6V25.31H81.2V15.55H22.05V122.87H81.2v-9.76h9.86V93.6Zm-19.71,9.76v9.75H31.91V25.31H71.35v9.75H81.2V64.33H71.35v9.76H81.2v29.27Z" style="fill:#f2c94b"/><polygon points="38.97 172.77 38.97 182.53 29.11 182.53 29.11 192.28 29.11 202.04 29.11 211.79 29.11 221.55 29.11 231.31 29.11 241.06 19.25 241.06 9.39 241.06 9.39 250.82 9.39 260.57 19.25 260.57 19.25 270.33 29.11 270.33 29.11 280.09 29.11 289.84 38.97 289.84 38.97 280.09 38.97 270.33 38.97 260.57 38.97 250.82 38.97 241.06 38.97 231.31 38.97 221.55 38.97 211.79 38.97 202.04 48.83 202.04 48.83 192.28 58.69 192.28 58.69 182.53 58.69 172.77 48.83 172.77 38.97 172.77" style="fill:#34e890"/><rect x="51.63" y="44.82" width="9.86" height="19.51" style="fill:#f2c94b"/><rect x="120.64" y="44.82" width="9.86" height="19.51" style="fill:#f2994a"/><rect x="426.27" y="44.82" width="9.86" height="19.51" style="fill:#749af7"/><rect x="51.62" y="74.09" width="9.86" height="19.51" style="fill:#f2c94b"/></g></svg>