<svg width="483" height="80" viewBox="0 0 483 80" fill="none" xmlns="http://www.w3.org/2000/svg">
<path d="M3 37.5V20H18H33V22.5V25H35.5H38V30V35H35.5H33V37.5V40H35.5H38V45V50H35.5H33V52.5V55H18H3V37.5ZM28 30V25H20.5H13V30V35H20.5H28V30ZM28 45V40H20.5H13V45V50H20.5H28V45ZM48 22.5V20H63H78V22.5V25H73H68V37.5V50H73H78V52.5V55H63H48V52.5V50H53H58V37.5V25H53H48V22.5Z" fill="#222629"/>
<path d="M3 20V17H0V20H3ZM33 20H36V17H33V20ZM33 25H30V28H33V25ZM38 25H41V22H38V25ZM38 35V38H41V35H38ZM33 35V32H30V35H33ZM33 40H30V43H33V40ZM38 40H41V37H38V40ZM38 50V53H41V50H38ZM33 50V47H30V50H33ZM33 55V58H36V55H33ZM3 55H0V58H3V55ZM28 25H31V22H28V25ZM13 25V22H10V25H13ZM13 35H10V38H13V35ZM28 35V38H31V35H28ZM28 40H31V37H28V40ZM13 40V37H10V40H13ZM13 50H10V53H13V50ZM28 50V53H31V50H28ZM6 37.5V20H0V37.5H6ZM3 23H18V17H3V23ZM18 23H33V17H18V23ZM30 20V22.5H36V20H30ZM30 22.5V25H36V22.5H30ZM33 28H35.5V22H33V28ZM35.5 28H38V22H35.5V28ZM35 25V30H41V25H35ZM35 30V35H41V30H35ZM38 32H35.5V38H38V32ZM35.5 32H33V38H35.5V32ZM30 35V37.5H36V35H30ZM30 37.5V40H36V37.5H30ZM33 43H35.5V37H33V43ZM35.5 43H38V37H35.5V43ZM35 40V45H41V40H35ZM35 45V50H41V45H35ZM38 47H35.5V53H38V47ZM35.5 47H33V53H35.5V47ZM30 50V52.5H36V50H30ZM30 52.5V55H36V52.5H30ZM33 52H18V58H33V52ZM18 52H3V58H18V52ZM6 55V37.5H0V55H6ZM31 30V25H25V30H31ZM28 22H20.5V28H28V22ZM20.5 22H13V28H20.5V22ZM10 25V30H16V25H10ZM10 30V35H16V30H10ZM13 38H20.5V32H13V38ZM20.5 38H28V32H20.5V38ZM31 35V30H25V35H31ZM31 45V40H25V45H31ZM28 37H20.5V43H28V37ZM20.5 37H13V43H20.5V37ZM10 40V45H16V40H10ZM10 45V50H16V45H10ZM13 53H20.5V47H13V53ZM20.5 53H28V47H20.5V53ZM31 50V45H25V50H31ZM48 20V17H45V20H48ZM78 20H81V17H78V20ZM78 25V28H81V25H78ZM68 25V22H65V25H68ZM68 50H65V53H68V50ZM78 50H81V47H78V50ZM78 55V58H81V55H78ZM48 55H45V58H48V55ZM48 50V47H45V50H48ZM58 50V53H61V50H58ZM58 25H61V22H58V25ZM48 25H45V28H48V25ZM51 22.5V20H45V22.5H51ZM48 23H63V17H48V23ZM63 23H78V17H63V23ZM75 20V22.5H81V20H75ZM75 22.5V25H81V22.5H75ZM78 22H73V28H78V22ZM73 22H68V28H73V22ZM65 25V37.5H71V25H65ZM65 37.5V50H71V37.5H65ZM68 53H73V47H68V53ZM73 53H78V47H73V53ZM75 50V52.5H81V50H75ZM75 52.5V55H81V52.5H75ZM78 52H63V58H78V52ZM63 52H48V58H63V52ZM51 55V52.5H45V55H51ZM51 52.5V50H45V52.5H51ZM48 53H53V47H48V53ZM53 53H58V47H53V53ZM61 50V37.5H55V50H61ZM61 37.5V25H55V37.5H61ZM58 22H53V28H58V22ZM53 22H48V28H53V22ZM51 25V22.5H45V25H51Z" fill="#34E890"/>
<path d="M83 37.5V20H98H113V22.5V25H115.5H118V30V35H115.5H113V37.5V40H115.5H118V45V50H115.5H113V52.5V55H98H83V37.5ZM108 30V25H100.5H93V30V35H100.5H108V30ZM108 45V40H100.5H93V45V50H100.5H108V45ZM128 37.5V20H133H138V35V50H148H158V52.5V55H143H128V37.5Z" fill="#222629"/>
<path d="M83 20V17H80V20H83ZM113 20H116V17H113V20ZM113 25H110V28H113V25ZM118 25H121V22H118V25ZM118 35V38H121V35H118ZM113 35V32H110V35H113ZM113 40H110V43H113V40ZM118 40H121V37H118V40ZM118 50V53H121V50H118ZM113 50V47H110V50H113ZM113 55V58H116V55H113ZM83 55H80V58H83V55ZM108 25H111V22H108V25ZM93 25V22H90V25H93ZM93 35H90V38H93V35ZM108 35V38H111V35H108ZM108 40H111V37H108V40ZM93 40V37H90V40H93ZM93 50H90V53H93V50ZM108 50V53H111V50H108ZM86 37.5V20H80V37.5H86ZM83 23H98V17H83V23ZM98 23H113V17H98V23ZM110 20V22.5H116V20H110ZM110 22.5V25H116V22.5H110ZM113 28H115.5V22H113V28ZM115.5 28H118V22H115.5V28ZM115 25V30H121V25H115ZM115 30V35H121V30H115ZM118 32H115.5V38H118V32ZM115.5 32H113V38H115.5V32ZM110 35V37.5H116V35H110ZM110 37.5V40H116V37.5H110ZM113 43H115.5V37H113V43ZM115.5 43H118V37H115.5V43ZM115 40V45H121V40H115ZM115 45V50H121V45H115ZM118 47H115.5V53H118V47ZM115.5 47H113V53H115.5V47ZM110 50V52.5H116V50H110ZM110 52.5V55H116V52.5H110ZM113 52H98V58H113V52ZM98 52H83V58H98V52ZM86 55V37.5H80V55H86ZM111 30V25H105V30H111ZM108 22H100.5V28H108V22ZM100.5 22H93V28H100.5V22ZM90 25V30H96V25H90ZM90 30V35H96V30H90ZM93 38H100.5V32H93V38ZM100.5 38H108V32H100.5V38ZM111 35V30H105V35H111ZM111 45V40H105V45H111ZM108 37H100.5V43H108V37ZM100.5 37H93V43H100.5V37ZM90 40V45H96V40H90ZM90 45V50H96V45H90ZM93 53H100.5V47H93V53ZM100.5 53H108V47H100.5V53ZM111 50V45H105V50H111ZM128 20V17H125V20H128ZM138 20H141V17H138V20ZM138 50H135V53H138V50ZM158 50H161V47H158V50ZM158 55V58H161V55H158ZM128 55H125V58H128V55ZM131 37.5V20H125V37.5H131ZM128 23H133V17H128V23ZM133 23H138V17H133V23ZM135 20V35H141V20H135ZM135 35V50H141V35H135ZM138 53H148V47H138V53ZM148 53H158V47H148V53ZM155 50V52.5H161V50H155ZM155 52.5V55H161V52.5H155ZM158 52H143V58H158V52ZM143 52H128V58H143V52ZM131 55V37.5H125V55H131Z" fill="#F2C94C"/>
<path d="M168 22.5V20H183H198V22.5V25H193H188V37.5V50H193H198V52.5V55H183H168V52.5V50H173H178V37.5V25H173H168V22.5ZM208 22.5V20H220.5H233V22.5V25H235.5H238V37.5V50H235.5H233V52.5V55H220.5H208V52.5V50H205.5H203V37.5V25H205.5H208V22.5ZM228 37.5V25H220.5H213V37.5V50H220.5H228V37.5Z" fill="#222629"/>
<path d="M168 20V17H165V20H168ZM198 20H201V17H198V20ZM198 25V28H201V25H198ZM188 25V22H185V25H188ZM188 50H185V53H188V50ZM198 50H201V47H198V50ZM198 55V58H201V55H198ZM168 55H165V58H168V55ZM168 50V47H165V50H168ZM178 50V53H181V50H178ZM178 25H181V22H178V25ZM168 25H165V28H168V25ZM171 22.5V20H165V22.5H171ZM168 23H183V17H168V23ZM183 23H198V17H183V23ZM195 20V22.5H201V20H195ZM195 22.5V25H201V22.5H195ZM198 22H193V28H198V22ZM193 22H188V28H193V22ZM185 25V37.5H191V25H185ZM185 37.5V50H191V37.5H185ZM188 53H193V47H188V53ZM193 53H198V47H193V53ZM195 50V52.5H201V50H195ZM195 52.5V55H201V52.5H195ZM198 52H183V58H198V52ZM183 52H168V58H183V52ZM171 55V52.5H165V55H171ZM171 52.5V50H165V52.5H171ZM168 53H173V47H168V53ZM173 53H178V47H173V53ZM181 50V37.5H175V50H181ZM181 37.5V25H175V37.5H181ZM178 22H173V28H178V22ZM173 22H168V28H173V22ZM171 25V22.5H165V25H171ZM208 20V17H205V20H208ZM233 20H236V17H233V20ZM233 25H230V28H233V25ZM238 25H241V22H238V25ZM238 50V53H241V50H238ZM233 50V47H230V50H233ZM233 55V58H236V55H233ZM208 55H205V58H208V55ZM208 50H211V47H208V50ZM203 50H200V53H203V50ZM203 25V22H200V25H203ZM208 25V28H211V25H208ZM228 25H231V22H228V25ZM213 25V22H210V25H213ZM213 50H210V53H213V50ZM228 50V53H231V50H228ZM211 22.5V20H205V22.5H211ZM208 23H220.5V17H208V23ZM220.5 23H233V17H220.5V23ZM230 20V22.5H236V20H230ZM230 22.5V25H236V22.5H230ZM233 28H235.5V22H233V28ZM235.5 28H238V22H235.5V28ZM235 25V37.5H241V25H235ZM235 37.5V50H241V37.5H235ZM238 47H235.5V53H238V47ZM235.5 47H233V53H235.5V47ZM230 50V52.5H236V50H230ZM230 52.5V55H236V52.5H230ZM233 52H220.5V58H233V52ZM220.5 52H208V58H220.5V52ZM211 55V52.5H205V55H211ZM211 52.5V50H205V52.5H211ZM208 47H205.5V53H208V47ZM205.5 47H203V53H205.5V47ZM206 50V37.5H200V50H206ZM206 37.5V25H200V37.5H206ZM203 28H205.5V22H203V28ZM205.5 28H208V22H205.5V28ZM211 25V22.5H205V25H211ZM231 37.5V25H225V37.5H231ZM228 22H220.5V28H228V22ZM220.5 22H213V28H220.5V22ZM210 25V37.5H216V25H210ZM210 37.5V50H216V37.5H210ZM213 53H220.5V47H213V53ZM220.5 53H228V47H220.5V53ZM231 50V37.5H225V50H231Z" fill="#F2994A"/>
<path d="M253 22.5V20H265.5H278V22.5V25H268H258V27.5V30H255.5H253V37.5V45H255.5H258V47.5V50H263H268V45V40H265.5H263V37.5V35H270.5H278V45V55H265.5H253V52.5V50H250.5H248V47.5V45H245.5H243V37.5V30H245.5H248V27.5V25H250.5H253V22.5ZM283 37.5V20H298H313V22.5V25H315.5H318V32.5V40H313H308V42.5V45H310.5H313V47.5V50H315.5H318V52.5V55H310.5H303V52.5V50H300.5H298V47.5V45H295.5H293V50V55H288H283V37.5ZM308 30V25H300.5H293V32.5V40H298H303V37.5V35H305.5H308V30Z" fill="#222629"/>
<path d="M253 20V17H250V20H253ZM278 20H281V17H278V20ZM278 25V28H281V25H278ZM258 25V22H255V25H258ZM258 30V33H261V30H258ZM253 30V27H250V30H253ZM253 45H250V48H253V45ZM258 45H261V42H258V45ZM258 50H255V53H258V50ZM268 50V53H271V50H268ZM268 40H271V37H268V40ZM263 40H260V43H263V40ZM263 35V32H260V35H263ZM278 35H281V32H278V35ZM278 55V58H281V55H278ZM253 55H250V58H253V55ZM253 50H256V47H253V50ZM248 50H245V53H248V50ZM248 45H251V42H248V45ZM243 45H240V48H243V45ZM243 30V27H240V30H243ZM248 30V33H251V30H248ZM248 25V22H245V25H248ZM253 25V28H256V25H253ZM256 22.5V20H250V22.5H256ZM253 23H265.5V17H253V23ZM265.5 23H278V17H265.5V23ZM275 20V22.5H281V20H275ZM275 22.5V25H281V22.5H275ZM278 22H268V28H278V22ZM268 22H258V28H268V22ZM255 25V27.5H261V25H255ZM255 27.5V30H261V27.5H255ZM258 27H255.5V33H258V27ZM255.5 27H253V33H255.5V27ZM250 30V37.5H256V30H250ZM250 37.5V45H256V37.5H250ZM253 48H255.5V42H253V48ZM255.5 48H258V42H255.5V48ZM255 45V47.5H261V45H255ZM255 47.5V50H261V47.5H255ZM258 53H263V47H258V53ZM263 53H268V47H263V53ZM271 50V45H265V50H271ZM271 45V40H265V45H271ZM268 37H265.5V43H268V37ZM265.5 37H263V43H265.5V37ZM266 40V37.5H260V40H266ZM266 37.5V35H260V37.5H266ZM263 38H270.5V32H263V38ZM270.5 38H278V32H270.5V38ZM275 35V45H281V35H275ZM275 45V55H281V45H275ZM278 52H265.5V58H278V52ZM265.5 52H253V58H265.5V52ZM256 55V52.5H250V55H256ZM256 52.5V50H250V52.5H256ZM253 47H250.5V53H253V47ZM250.5 47H248V53H250.5V47ZM251 50V47.5H245V50H251ZM251 47.5V45H245V47.5H251ZM248 42H245.5V48H248V42ZM245.5 42H243V48H245.5V42ZM246 45V37.5H240V45H246ZM246 37.5V30H240V37.5H246ZM243 33H245.5V27H243V33ZM245.5 33H248V27H245.5V33ZM251 30V27.5H245V30H251ZM251 27.5V25H245V27.5H251ZM248 28H250.5V22H248V28ZM250.5 28H253V22H250.5V28ZM256 25V22.5H250V25H256ZM283 20V17H280V20H283ZM313 20H316V17H313V20ZM313 25H310V28H313V25ZM318 25H321V22H318V25ZM318 40V43H321V40H318ZM308 40V37H305V40H308ZM308 45H305V48H308V45ZM313 45H316V42H313V45ZM313 50H310V53H313V50ZM318 50H321V47H318V50ZM318 55V58H321V55H318ZM303 55H300V58H303V55ZM303 50H306V47H303V50ZM298 50H295V53H298V50ZM298 45H301V42H298V45ZM293 45V42H290V45H293ZM293 55V58H296V55H293ZM283 55H280V58H283V55ZM308 25H311V22H308V25ZM293 25V22H290V25H293ZM293 40H290V43H293V40ZM303 40V43H306V40H303ZM303 35V32H300V35H303ZM308 35V38H311V35H308ZM286 37.5V20H280V37.5H286ZM283 23H298V17H283V23ZM298 23H313V17H298V23ZM310 20V22.5H316V20H310ZM310 22.5V25H316V22.5H310ZM313 28H315.5V22H313V28ZM315.5 28H318V22H315.5V28ZM315 25V32.5H321V25H315ZM315 32.5V40H321V32.5H315ZM318 37H313V43H318V37ZM313 37H308V43H313V37ZM305 40V42.5H311V40H305ZM305 42.5V45H311V42.5H305ZM308 48H310.5V42H308V48ZM310.5 48H313V42H310.5V48ZM310 45V47.5H316V45H310ZM310 47.5V50H316V47.5H310ZM313 53H315.5V47H313V53ZM315.5 53H318V47H315.5V53ZM315 50V52.5H321V50H315ZM315 52.5V55H321V52.5H315ZM318 52H310.5V58H318V52ZM310.5 52H303V58H310.5V52ZM306 55V52.5H300V55H306ZM306 52.5V50H300V52.5H306ZM303 47H300.5V53H303V47ZM300.5 47H298V53H300.5V47ZM301 50V47.5H295V50H301ZM301 47.5V45H295V47.5H301ZM298 42H295.5V48H298V42ZM295.5 42H293V48H295.5V42ZM290 45V50H296V45H290ZM290 50V55H296V50H290ZM293 52H288V58H293V52ZM288 52H283V58H288V52ZM286 55V37.5H280V55H286ZM311 30V25H305V30H311ZM308 22H300.5V28H308V22ZM300.5 22H293V28H300.5V22ZM290 25V32.5H296V25H290ZM290 32.5V40H296V32.5H290ZM293 43H298V37H293V43ZM298 43H303V37H298V43ZM306 40V37.5H300V40H306ZM306 37.5V35H300V37.5H306ZM303 38H305.5V32H303V38ZM305.5 38H308V32H305.5V38ZM311 35V30H305V35H311Z" fill="#EB5757"/>
<path d="M333 22.5V20H340.5H348V22.5V25H350.5H353V27.5V30H355.5H358V42.5V55H353H348V50V45H340.5H333V50V55H328H323V42.5V30H325.5H328V27.5V25H330.5H333V22.5ZM343 27.5V25H340.5H338V27.5V30H335.5H333V35V40H340.5H348V35V30H345.5H343V27.5ZM363 37.5V20H378H393V22.5V25H395.5H398V32.5V40H395.5H393V42.5V45H383H373V50V55H368H363V37.5ZM388 32.5V25H380.5H373V32.5V40H380.5H388V32.5Z" fill="#222629"/>
<path d="M333 20V17H330V20H333ZM348 20H351V17H348V20ZM348 25H345V28H348V25ZM353 25H356V22H353V25ZM353 30H350V33H353V30ZM358 30H361V27H358V30ZM358 55V58H361V55H358ZM348 55H345V58H348V55ZM348 45H351V42H348V45ZM333 45V42H330V45H333ZM333 55V58H336V55H333ZM323 55H320V58H323V55ZM323 30V27H320V30H323ZM328 30V33H331V30H328ZM328 25V22H325V25H328ZM333 25V28H336V25H333ZM343 25H346V22H343V25ZM338 25V22H335V25H338ZM338 30V33H341V30H338ZM333 30V27H330V30H333ZM333 40H330V43H333V40ZM348 40V43H351V40H348ZM348 30H351V27H348V30ZM343 30H340V33H343V30ZM336 22.5V20H330V22.5H336ZM333 23H340.5V17H333V23ZM340.5 23H348V17H340.5V23ZM345 20V22.5H351V20H345ZM345 22.5V25H351V22.5H345ZM348 28H350.5V22H348V28ZM350.5 28H353V22H350.5V28ZM350 25V27.5H356V25H350ZM350 27.5V30H356V27.5H350ZM353 33H355.5V27H353V33ZM355.5 33H358V27H355.5V33ZM355 30V42.5H361V30H355ZM355 42.5V55H361V42.5H355ZM358 52H353V58H358V52ZM353 52H348V58H353V52ZM351 55V50H345V55H351ZM351 50V45H345V50H351ZM348 42H340.5V48H348V42ZM340.5 42H333V48H340.5V42ZM330 45V50H336V45H330ZM330 50V55H336V50H330ZM333 52H328V58H333V52ZM328 52H323V58H328V52ZM326 55V42.5H320V55H326ZM326 42.5V30H320V42.5H326ZM323 33H325.5V27H323V33ZM325.5 33H328V27H325.5V33ZM331 30V27.5H325V30H331ZM331 27.5V25H325V27.5H331ZM328 28H330.5V22H328V28ZM330.5 28H333V22H330.5V28ZM336 25V22.5H330V25H336ZM346 27.5V25H340V27.5H346ZM343 22H340.5V28H343V22ZM340.5 22H338V28H340.5V22ZM335 25V27.5H341V25H335ZM335 27.5V30H341V27.5H335ZM338 27H335.5V33H338V27ZM335.5 27H333V33H335.5V27ZM330 30V35H336V30H330ZM330 35V40H336V35H330ZM333 43H340.5V37H333V43ZM340.5 43H348V37H340.5V43ZM351 40V35H345V40H351ZM351 35V30H345V35H351ZM348 27H345.5V33H348V27ZM345.5 27H343V33H345.5V27ZM346 30V27.5H340V30H346ZM363 20V17H360V20H363ZM393 20H396V17H393V20ZM393 25H390V28H393V25ZM398 25H401V22H398V25ZM398 40V43H401V40H398ZM393 40V37H390V40H393ZM393 45V48H396V45H393ZM373 45V42H370V45H373ZM373 55V58H376V55H373ZM363 55H360V58H363V55ZM388 25H391V22H388V25ZM373 25V22H370V25H373ZM373 40H370V43H373V40ZM388 40V43H391V40H388ZM366 37.5V20H360V37.5H366ZM363 23H378V17H363V23ZM378 23H393V17H378V23ZM390 20V22.5H396V20H390ZM390 22.5V25H396V22.5H390ZM393 28H395.5V22H393V28ZM395.5 28H398V22H395.5V28ZM395 25V32.5H401V25H395ZM395 32.5V40H401V32.5H395ZM398 37H395.5V43H398V37ZM395.5 37H393V43H395.5V37ZM390 40V42.5H396V40H390ZM390 42.5V45H396V42.5H390ZM393 42H383V48H393V42ZM383 42H373V48H383V42ZM370 45V50H376V45H370ZM370 50V55H376V50H370ZM373 52H368V58H373V52ZM368 52H363V58H368V52ZM366 55V37.5H360V55H366ZM391 32.5V25H385V32.5H391ZM388 22H380.5V28H388V22ZM380.5 22H373V28H380.5V22ZM370 25V32.5H376V25H370ZM370 32.5V40H376V32.5H370ZM373 43H380.5V37H373V43ZM380.5 43H388V37H380.5V43ZM391 40V32.5H385V40H391Z" fill="#FF89D0"/>
<path d="M403 37.5V20H408H413V27.5V35H420.5H428V27.5V20H433H438V37.5V55H433H428V47.5V40H420.5H413V47.5V55H408H403V37.5ZM448 27.5V20H453H458V27.5V35H463H468V27.5V20H473H478V27.5V35H475.5H473V37.5V40H470.5H468V47.5V55H463H458V47.5V40H455.5H453V37.5V35H450.5H448V27.5Z" fill="#222629"/>
<path d="M403 20V17H400V20H403ZM413 20H416V17H413V20ZM413 35H410V38H413V35ZM428 35V38H431V35H428ZM428 20V17H425V20H428ZM438 20H441V17H438V20ZM438 55V58H441V55H438ZM428 55H425V58H428V55ZM428 40H431V37H428V40ZM413 40V37H410V40H413ZM413 55V58H416V55H413ZM403 55H400V58H403V55ZM406 37.5V20H400V37.5H406ZM403 23H408V17H403V23ZM408 23H413V17H408V23ZM410 20V27.5H416V20H410ZM410 27.5V35H416V27.5H410ZM413 38H420.5V32H413V38ZM420.5 38H428V32H420.5V38ZM431 35V27.5H425V35H431ZM431 27.5V20H425V27.5H431ZM428 23H433V17H428V23ZM433 23H438V17H433V23ZM435 20V37.5H441V20H435ZM435 37.5V55H441V37.5H435ZM438 52H433V58H438V52ZM433 52H428V58H433V52ZM431 55V47.5H425V55H431ZM431 47.5V40H425V47.5H431ZM428 37H420.5V43H428V37ZM420.5 37H413V43H420.5V37ZM410 40V47.5H416V40H410ZM410 47.5V55H416V47.5H410ZM413 52H408V58H413V52ZM408 52H403V58H408V52ZM406 55V37.5H400V55H406ZM448 20V17H445V20H448ZM458 20H461V17H458V20ZM458 35H455V38H458V35ZM468 35V38H471V35H468ZM468 20V17H465V20H468ZM478 20H481V17H478V20ZM478 35V38H481V35H478ZM473 35V32H470V35H473ZM473 40V43H476V40H473ZM468 40V37H465V40H468ZM468 55V58H471V55H468ZM458 55H455V58H458V55ZM458 40H461V37H458V40ZM453 40H450V43H453V40ZM453 35H456V32H453V35ZM448 35H445V38H448V35ZM451 27.5V20H445V27.5H451ZM448 23H453V17H448V23ZM453 23H458V17H453V23ZM455 20V27.5H461V20H455ZM455 27.5V35H461V27.5H455ZM458 38H463V32H458V38ZM463 38H468V32H463V38ZM471 35V27.5H465V35H471ZM471 27.5V20H465V27.5H471ZM468 23H473V17H468V23ZM473 23H478V17H473V23ZM475 20V27.5H481V20H475ZM475 27.5V35H481V27.5H475ZM478 32H475.5V38H478V32ZM475.5 32H473V38H475.5V32ZM470 35V37.5H476V35H470ZM470 37.5V40H476V37.5H470ZM473 37H470.5V43H473V37ZM470.5 37H468V43H470.5V37ZM465 40V47.5H471V40H465ZM465 47.5V55H471V47.5H465ZM468 52H463V58H468V52ZM463 52H458V58H463V52ZM461 55V47.5H455V55H461ZM461 47.5V40H455V47.5H461ZM458 37H455.5V43H458V37ZM455.5 37H453V43H455.5V37ZM456 40V37.5H450V40H456ZM456 37.5V35H450V37.5H456ZM453 32H450.5V38H453V32ZM450.5 32H448V38H450.5V32ZM451 35V27.5H445V35H451Z" fill="#BB6BD9"/>
</svg>
