<svg width="701" height="470" viewBox="0 0 701 470" fill="none" xmlns="http://www.w3.org/2000/svg">
<rect width="701" height="470" fill="#222629"/>
<g clip-path="url(#clip0)">
<path d="M498.05 252.69V256.63V260.58V264.53H502V260.58V256.63V252.69V248.74H498.05V252.69Z" fill="#3E79D6"/>
<path d="M498.05 201.37V205.32V209.26V213.21V217.16V221.11H494.11V225.05H498.05V229V232.95V236.9V240.84V244.79V248.74H502V244.79V240.84V236.9V232.95V229V225.05V221.11V217.16V213.21V209.26V205.32V201.37H498.05Z" fill="#2661B5"/>
<path d="M498.05 256.63V252.69V248.74H494.11V252.69V256.63H490.16V260.58V264.53H494.11H498.05V260.58V256.63Z" fill="#2661B5"/>
<path d="M494.11 232.95V236.9V240.84H490.16V244.79H494.11V248.74H498.05V244.79V240.84V236.9V232.95V229V225.05H494.11V229V232.95Z" fill="#3E79D6"/>
<path d="M494.11 213.21V217.16H490.16V221.11V225.05H494.11V221.11H498.05V217.16V213.21V209.26H494.11V213.21Z" fill="#3E79D6"/>
<path d="M490.16 264.53V256.63H482.26V248.74H478.32V252.69H474.37V256.63H478.32V260.63H474.37V256.63H470.42V252.69H474.37V248.74H470.42V240.84H466.48V236.9H450.69V244.79H446.74V240.84H434.9V244.79H427V240.84H419.11V248.74H423.05V252.69H434.9V248.74H438.84V244.74H442.79V248.74H450.69V260.58H446.74V268.47H442.74V276.37H438.79V284.26H434.9V288.26H430.9V292.21H427V296.21H434.9V292.21H438.84V288.26H442.79V296.16H438.84V308H434.9V315.89H430.9V319.84H427V327.74H423.05V331.68H427V335.68H431V331.68H435V339.58H438.94V343.52H442.89V347.47H438.94V351.42H434.9V355.37H442.79V351.42H446.79V347.47H450.74V343.52H454.68V339.58H458.68V335.63H454.68V331.63H446.79V335.63H450.74V339.58H446.79V335.63H442.79V323.74H446.79V319.74H450.74V311.9H458.63V315.84H454.63V319.79H450.69V323.79H458.58V319.79H478.32V311.9H482.26V307.9H486.21V300H490.21V292.11H494.16V280.32H498.1V264.53H490.21H490.16ZM446.74 284.26H442.74V280.32H446.74V284.26ZM458.58 284.26H454.58V288.26H450.64V284.26H454.58V280.32H462.48V268.47H466.48V276.37H470.42V280.32H462.53V284.26H458.58ZM482.26 276.37V292.16H474.37V296.16H478.32V300.1H474.37V304H470.42V308H462.53V304H466.53V296.11H470.47V292.11H474.42V288.16H478.37V272.42H482.31L482.26 276.37ZM494.11 272.37V276.37H486.21V268.47H494.11V272.37Z" fill="#3E79D6"/>
<path d="M490.16 244.79H486.21H482.26V248.74V252.69H486.21V256.63H490.16H494.11V252.69V248.74V244.79H490.16Z" fill="#34E890"/>
<path d="M490.16 229V232.95V236.9V240.84H494.11V236.9V232.95V229V225.05H490.16V229Z" fill="#2661B5"/>
<path d="M490.16 217.16H494.11V213.21V209.26H490.16V213.21V217.16Z" fill="#2661B5"/>
<path d="M494.11 197.42H490.16V201.37H494.11V197.42Z" fill="#3E79D6"/>
<path d="M490.16 181.63H494.11V177.69V173.74H490.16V177.69V181.63Z" fill="#2661B5"/>
<path d="M486.21 268.47V272.42V276.37H490.16H494.11V272.42V268.47H490.16H486.21Z" fill="#2661B5"/>
<path d="M490.16 236.9H486.21V240.84H490.16V236.9Z" fill="#34E890"/>
<path d="M486.21 229V232.95V236.9H490.16V232.95V229V225.05H486.21V229Z" fill="#3E79D6"/>
<path d="M486.21 205.32V209.26H490.16V205.32V201.37H486.21V205.32Z" fill="#2661B5"/>
<path d="M486.21 197.42H490.16V193.47V189.53H486.21H482.26V193.47H486.21V197.42Z" fill="#3E79D6"/>
<path d="M490.16 189.53V185.58H486.21H482.26V189.53H486.21H490.16Z" fill="#2661B5"/>
<path d="M486.21 177.69H482.26H478.32V181.63V185.58V189.53V193.47H474.37H470.42H466.48H462.53H458.58H454.63V197.42H458.58V201.37H454.63V205.32V209.26H458.58V205.32H462.53H466.48V201.37H470.42H474.37V197.42H478.32H482.26V193.47V189.53V185.58V181.63H486.21V185.58H490.16V189.53V193.47V197.42H494.11V201.37H490.16V205.32V209.26H494.11H498.05V205.32V201.37V197.42V193.47V189.53H494.11V185.58V181.63H490.16V177.69V173.74H486.21V177.69Z" fill="#34E890"/>
<path d="M490.16 169.79H486.21V173.74H490.16V169.79Z" fill="#2661B5"/>
<path d="M490.16 165.84H486.21V169.79H490.16V165.84Z" fill="#3E79D6"/>
<path d="M486.21 252.69H482.26V256.63H486.21V252.69Z" fill="#2661B5"/>
<path d="M482.26 205.32H478.32H474.37H470.42V209.26H474.37V213.21H478.32H482.26V217.16V221.11V225.05V229H486.21V225.05H490.16V221.11V217.16V213.21V209.26H486.21V205.32V201.37H490.16V197.42H486.21H482.26V201.37V205.32Z" fill="#34E890"/>
<path d="M486.21 193.47H482.26V197.42H486.21V193.47Z" fill="#2661B5"/>
<path d="M486.21 181.63H482.26V185.58H486.21V181.63Z" fill="#3E79D6"/>
<path d="M478.32 276.37V280.32V284.26V288.21H474.37V292.16H478.32H482.26V288.21V284.26V280.32V276.37V272.42H478.32V276.37Z" fill="#2661B5"/>
<path d="M478.32 244.79V240.84H474.37H470.42V244.79V248.74H474.37V252.69H478.32V248.74H482.26V244.79H478.32Z" fill="#2661B5"/>
<path d="M482.26 177.69H486.21V173.74V169.79H482.26V173.74H478.32V177.69H482.26Z" fill="#3E79D6"/>
<path d="M478.32 165.84V169.79V173.74H482.26V169.79H486.21V165.84H482.26H478.32Z" fill="#2661B5"/>
<path d="M478.32 296.11H474.37V300.05H478.32V296.11Z" fill="#2661B5"/>
<path d="M478.32 256.63H474.37V260.58H478.32V256.63Z" fill="#2661B5"/>
<path d="M474.37 296.11H470.42V300.05H474.37V296.11Z" fill="#3E79D6"/>
<path d="M474.37 292.16H470.42V296.11H474.37V292.16Z" fill="#2661B5"/>
<path d="M474.37 252.69H470.42V256.63H474.37V252.69Z" fill="#2661B5"/>
<path d="M474.37 236.9H470.42V240.84H474.37V236.9Z" fill="#3E79D6"/>
<path d="M474.37 232.95H470.42V236.9H474.37V232.95Z" fill="#2661B5"/>
<path d="M466.48 319.79H462.53H458.58V323.74H462.53V327.69H466.48H470.42V323.74H474.37V319.79H470.42H466.48Z" fill="#2661B5"/>
<path d="M470.42 296.11H466.48V300.05V304H462.53V307.95H466.48H470.42V304H474.37V300.05H470.42V296.11Z" fill="#2661B5"/>
<path d="M470.42 280.32V276.37H466.48V272.42V268.47H462.53V272.42V276.37V280.32H466.48H470.42Z" fill="#2661B5"/>
<path d="M470.42 236.9H466.48V240.84H470.42V236.9Z" fill="#2661B5"/>
<path d="M470.42 232.95H474.37V236.9V240.84H478.32V244.79H482.26V240.84V236.9V232.95H478.32V229V225.05H474.37H470.42V221.11V217.16V213.21H466.48V209.26H462.53H458.58V213.21V217.16V221.11V225.05V229H462.53V232.95H466.48V236.9H470.42V232.95Z" fill="#34E890"/>
<path d="M470.42 146.11H466.48V150.05H470.42V146.11Z" fill="#2661B5"/>
<path d="M470.42 142.16H466.48V146.11H470.42V142.16Z" fill="#D3BE8C"/>
<path d="M462.53 232.95H458.58V236.9H462.53H466.48V232.95H462.53Z" fill="#2661B5"/>
<path d="M466.48 209.26V213.21H470.42V217.16V221.11V225.05H474.37H478.32V229V232.95H482.26V236.9V240.84V244.79H486.21H490.16V240.84H486.21V236.9V232.95V229H482.26V225.05V221.11V217.16V213.21H478.32H474.37V209.26H470.42V205.32H474.37H478.32H482.26V201.37V197.42H478.32H474.37V201.37H470.42H466.48V205.32H462.53H458.58V209.26H462.53H466.48Z" fill="#2CCE78"/>
<path d="M462.53 146.11H458.58H454.63V150.05H458.58V154H462.53V150.05H466.48V146.11H462.53Z" fill="#D3BE8C"/>
<path d="M466.48 142.16H462.53V146.11H466.48V142.16Z" fill="#3E79D6"/>
<path d="M466.48 138.21H462.53V142.16H466.48V138.21Z" fill="#2661B5"/>
<path d="M462.53 323.74H458.58V327.69H454.63V331.63H458.58V335.58H462.53V331.63H466.48V327.69H462.53V323.74Z" fill="#3E79D6"/>
<path d="M462.53 280.32H458.58H454.63V284.26H458.58H462.53V280.32Z" fill="#2661B5"/>
<path d="M462.53 233V229H458.58V209.26H454.58V205.32H450.64V209.26H446.69V213.26H442.69V221.16H438.74V229H427V225.05H403.32V221.11H391.48V225.05H379.63V229H371.74V233H367.74V237H379.58V233H383.58V248.79H379.58V252.74H375.64V256.68H344.11V260.68H340.11V264.63H336.16V260.68H324.37V256.68H316.48V240.84H304.63V244.79H273.05V248.79H281V256.68H273.1V260.68H281V264.63H269.11V268.57H261.21V272.52H265.16V276.52H261.21V280.47H269.11V288.36H261.21V292.31H265.16V296.31H273.05V300.25H277.05V304H284.95V308H292.84V312H300.74V315.94H304.68V319.89H312.58V323.89H332.31V319.89H324.42V311.9H328.37V307.9H324.42V304H328.37V300.05H336.26V296.11H324.37V288.21H328.32V284.21H332.26V280.27H324.37V272.37H340.16V276.37H348.05V272.37H352V276.37H356V272.37H363.89V276.37H367.84V280.32H371.84V276.37H375.79V272.37H379.73V268.42H383.73V264.48H391.63V268.42H399.52V276.32H403.47V280.27H407.41V284.21H411.41V288.21H415.36V292.16H419.36V296.16H427V292.16H431V288.21H435V284.21H438.94V276.32H442.89V268.42H446.89V260.53H450.84V248.74H442.94V244.74H438.99V248.74H434.9V252.69H423.05V248.74H419.11V240.84H427V244.79H434.9V240.84H450.69V236.9H458.58V232.9L462.53 233ZM320.42 292.16V296.16H316.48V288.26H320.42V292.16ZM320.42 276.37H316.48V272.37H320.42V276.37Z" fill="#E5D3A1"/>
<path d="M462.53 134.26H458.58V138.21H462.53V134.26Z" fill="#2661B5"/>
<path d="M458.58 331.63H454.63V335.58H458.58V331.63Z" fill="#2661B5"/>
<path d="M458.58 327.69V323.74H454.63H450.69V319.79H446.74V323.74H442.79V327.69V331.63V335.58H446.74V331.63H450.69H454.63V327.69H458.58Z" fill="#2661B5"/>
<path d="M458.58 193.47H478.32V161.9H474.37V158H470.42V150.1H462.53V154.1H458.58V158.1H454.58V154H458.58V150H454.58V146.11H462.48V138.21H458.53V130.32H454.53V126.32H450.59V134.21H454.53V142.11H446.64V146.11H442.64V150.05H438.69V154.05H434.9V158.05H438.84V162.05H431V165.99H423.1V169.99H419.16V161.9H427V158H415.16V162H411.21V169.89H415.16V177.79H419.16V181.73H415.16V185.73H427V181.73H431V177.69H435V185.58H438.94V181.58H442.89V177.69H446.89V173.69H450.84V169.79H462.68V173.74H450.69V177.74H446.74V181.68H442.74V185.68H446.74V189.68H450.69V197.57H454.63V193.57L458.58 193.47ZM442.79 173.74H438.84V169.79H442.79V173.74ZM450.69 161.9H446.74V158H450.69V161.9ZM450.69 154H446.74V150H450.69V154ZM450.69 185.58V181.58H458.58V177.69H466.48V181.63H462.48V185.63H450.69V185.58Z" fill="#E5D3A1"/>
<path d="M458.58 185.58H462.53V181.63H466.48V177.69H462.53H458.58V181.63H454.63H450.69V185.58H454.63H458.58Z" fill="#D3BE8C"/>
<path d="M458.58 173.74H462.53V169.79H458.58H454.63H450.69V173.74H454.63H458.58Z" fill="#D3BE8C"/>
<path d="M458.58 154H454.63V157.95H458.58V154Z" fill="#D3BE8C"/>
<path d="M454.63 315.84H458.58V311.9H454.63H450.69V315.84V319.79H454.63V315.84Z" fill="#2661B5"/>
<path d="M454.63 284.26H450.69V288.21H454.63V284.26Z" fill="#2661B5"/>
<path d="M450.69 126.37H454.63V130.32H458.58V134.26H462.53V138.21H466.48V142.16H470.42V146.11V150.05V154V157.95H474.37V161.9H478.32V165.84H482.26H486.21V161.9V157.95H482.26V154V150.05H478.32V146.11V142.16H474.37V138.21H470.42V134.26H466.48V130.32H462.53V126.37H458.58V122.42H454.63V118.47H450.69V122.42V126.37Z" fill="#3E79D6"/>
<path d="M450.69 335.58H446.74V339.53H450.69V335.58Z" fill="#2661B5"/>
<path d="M450.69 240.84H446.74V244.79H450.69V240.84Z" fill="#2661B5"/>
<path d="M450.69 189.53H446.74V193.47V197.42H450.69V193.47V189.53Z" fill="#D3BE8C"/>
<path d="M450.69 173.74H446.74V177.69H450.69V173.74Z" fill="#D3BE8C"/>
<path d="M450.69 157.95H446.74V161.9H450.69V157.95Z" fill="#D3BE8C"/>
<path d="M450.69 150.05H446.74V154H450.69V150.05Z" fill="#D3BE8C"/>
<path d="M450.69 134.26H446.74V138.21H450.69V134.26Z" fill="#E5D3A1"/>
<path d="M446.74 280.32H442.79V284.26H446.74V280.32Z" fill="#2661B5"/>
<path d="M446.74 193.47V189.53H442.79V185.58H438.84V189.53V193.47V197.42V201.37H442.79H446.74H450.69V197.42H446.74V193.47Z" fill="#E5D3A1"/>
<path d="M446.74 185.58H442.79V189.53H446.74V185.58Z" fill="#D3BE8C"/>
<path d="M446.74 177.69H442.79V181.63H446.74V177.69Z" fill="#D3BE8C"/>
<path d="M446.74 118.47H450.69V114.53H446.74H442.79V118.47H446.74Z" fill="#3E79D6"/>
<path d="M442.79 343.47H438.84V347.42H442.79V343.47Z" fill="#2661B5"/>
<path d="M442.79 181.63H438.84V185.58H442.79V181.63Z" fill="#D3BE8C"/>
<path d="M442.79 169.79H438.84V173.74H442.79V169.79Z" fill="#D3BE8C"/>
<path d="M438.84 347.42H434.9V351.37H438.84V347.42Z" fill="#2661B5"/>
<path d="M438.84 209.26H434.9V213.21H438.84V209.26Z" fill="#E5D3A1"/>
<path d="M438.84 201.37H434.9V205.32H438.84V201.37Z" fill="#E5D3A1"/>
<path d="M434.9 114.53V110.53H427V114.53H431V118.47H435V126.37H438.94V134.26H434.9V138.26H438.84V146.16H419.11V150.1H415.11V154.1H407.21V162H403.27V169.89H407.21V173.84H403.27V177.84H395.37V181.78H391.43V185.78H395.37V193.67H399.37V189.73H403.32V201.57H411.21V205.52H415.16V209.46H419.16V213.46H423.1V217.41H419.16V221.41H411.26V217.41H407.26V213.46H403.32V217.41H387.53V221.41H375.69V225.35H363.84V229H359.9V233H363.84V237H359.9V240.94H367.79V233H371.79V229H379.68V225.05H391.53V221.11H403.37V225.05H427V217.16H438.84V221.16H442.79V213.26H446.79V209.26H450.74V205.32H454.68V201.37H458.68V197.37H450.79V201.37H438.84V205.32H434.9V201.37H438.84V185.58H434.9V189.58H430.9V193.52H427V189.58H431V185.58H435V177.69H431V181.63H427V185.63H415.16V181.63H419.16V177.69H415.16V169.79H411.21V161.9H415.16V158H427V154H431V158H427V162H419.11V169.89H423.05V165.89H431V161.9H438.89V158H434.9V154H438.84V150H442.79V146.11H446.79V142.11H454.68V134.21H450.74V138.21H446.79V134.21H450.74V118.47H442.84V114.53H434.9ZM434.9 209.26H438.84V213.26H434.9V209.26Z" fill="#D3BE8C"/>
<path d="M434.9 114.53H438.84H442.79V110.58H438.84H434.9V114.53Z" fill="#3E79D6"/>
<path d="M434.9 351.37H430.95V355.32H434.9V351.37Z" fill="#2661B5"/>
<path d="M434.9 225.05V221.11H438.84V217.16H434.9H430.95H427V221.11V225.05H430.95H434.9Z" fill="#E5D3A1"/>
<path d="M434.9 185.58H430.95V189.53H434.9V185.58Z" fill="#E5D3A1"/>
<path d="M434.9 110.58H438.84V106.63H434.9H430.95V110.58H434.9Z" fill="#2CCE78"/>
<path d="M427 355.32V359.26H430.95H434.9V355.32H430.95H427Z" fill="#3E79D6"/>
<path d="M430.95 355.32V351.37H434.9V347.42H438.84V343.47V339.53H434.9V343.47H430.95V347.42H427V351.37H423.05V355.32H419.11V359.26H415.16V363.21V367.16H419.11V363.21H423.05H427V359.26V355.32H430.95Z" fill="#34E890"/>
<path d="M427 343.47V347.42H430.95V343.47H434.9V339.53V335.58V331.63H430.95V335.58H427V339.53V343.47Z" fill="#2661B5"/>
<path d="M430.95 229H434.9H438.84V225.05V221.11H434.9V225.05H430.95H427V229H430.95Z" fill="#D3BE8C"/>
<path d="M430.95 189.53H427V193.47H430.95V189.53Z" fill="#E5D3A1"/>
<path d="M430.95 154H427V157.95H430.95V154Z" fill="#E5D3A1"/>
<path d="M430.95 142.16V138.21H427H423.05V142.16H419.11H415.16H411.21V146.11H415.16H419.11H423.05H427V142.16H430.95Z" fill="#2CCE78"/>
<path d="M427 331.63H423.05V335.58H427V331.63Z" fill="#2661B5"/>
<path d="M423.05 323.74H419.11V327.69H415.16V331.63V335.58H411.21H407.26V331.63V327.69H403.32V331.63H399.37V335.58H403.32V339.53V343.47V347.42H407.26V351.37V355.32H411.21V359.26H415.16V355.32H419.11V351.37V347.42H415.16V343.47V339.53H419.11V335.58V331.63H423.05V327.69H427V323.74V319.79H423.05V323.74Z" fill="#34E890"/>
<path d="M423.05 300.05H419.11V304V307.95H423.05V311.9H419.11H415.16V315.84V319.79H411.21V323.74V327.69H407.26V331.63V335.58H411.21H415.16V331.63V327.69H419.11V323.74H423.05V319.79H427H430.95V315.84H434.9V311.9V307.95H438.84V304V300.05V296.11H442.79V292.16V288.21H438.84V292.16H434.9V296.11H430.95H427V300.05H423.05Z" fill="#E5D3A1"/>
<path d="M423.05 118.47V122.42H419.11H415.16V126.37H419.11H423.05H427V130.32H423.05V134.26V138.21H427H430.95V142.16H427V146.11H430.95H434.9H438.84V142.16V138.21H434.9V134.26H438.84V130.32V126.37H434.9V122.42V118.47H430.95V114.53H427H423.05V118.47Z" fill="#34E890"/>
<path d="M427 110.58H423.05V114.53H427V110.58Z" fill="#3E79D6"/>
<path d="M427 106.63H423.05V110.58H427V106.63Z" fill="#D3BE8C"/>
<path d="M419.11 347.42V351.37V355.32H423.05V351.37H427V347.42H423.05H419.11Z" fill="#2661B5"/>
<path d="M423.05 339.53H419.11V343.47H423.05V339.53Z" fill="#2661B5"/>
<path d="M419.11 335.58V339.53H423.05V343.47H419.11V347.42H423.05H427V343.47V339.53V335.58H423.05V331.63H419.11V335.58Z" fill="#3E79D6"/>
<path d="M419.11 296.11V292.16H415.16V288.21H411.21H407.26V284.26V280.32H403.32V276.37H399.37V272.42V268.47H395.42H391.48V264.53H387.53H383.58V268.47H387.53V272.42H391.48V276.37H395.42V280.32V284.26H399.37V288.21H403.32V292.16H407.26H411.21V296.11H415.16V300.05H419.11H423.05H427V296.11H423.05H419.11Z" fill="#3E79D6"/>
<path d="M423.05 130.32H427V126.37H423.05H419.11H415.16V122.42H419.11H423.05V118.47V114.53H419.11H415.16V110.58H411.21H407.26V114.53H403.32H399.37V118.47H403.32H407.26H411.21V122.42H407.26V126.37V130.32H411.21V134.26H407.26V138.21H411.21H415.16H419.11H423.05V134.26V130.32Z" fill="#2CCE78"/>
<path d="M423.05 106.63H419.11V110.58H423.05V106.63Z" fill="#2661B5"/>
<path d="M419.11 106.63H423.05H427V110.58H430.95V106.63V102.69H427H423.05H419.11V106.63Z" fill="#3E79D6"/>
<path d="M419.11 355.32H415.16V359.26H419.11V355.32Z" fill="#2661B5"/>
<path d="M419.11 343.47H415.16V347.42H419.11V343.47Z" fill="#2661B5"/>
<path d="M419.11 339.53H415.16V343.47H419.11V339.53Z" fill="#3E79D6"/>
<path d="M415.16 359.26H411.21H407.26V363.21H403.32V367.16V371.11H407.26H411.21V367.16H415.16V363.21V359.26Z" fill="#3E79D6"/>
<path d="M415.16 213.21H411.21V217.16H415.16V213.21Z" fill="#2661B5"/>
<path d="M411.21 146.11V150.05V154H415.16V150.05H419.11V146.11H415.16H411.21Z" fill="#34E890"/>
<path d="M415.16 106.63H419.11V102.69H415.16H411.21V106.63H415.16Z" fill="#2661B5"/>
<path d="M407.26 355.32V347.42H403.32V335.58H399.37V331.58H403.32V327.64H407.26V311.9H403.32V319.79H399.37V327.69H395.37V331.63H391.43V335.63H395.37V343.52H383.58V371.16H387.53V367.21H395.42V363.21H407.26V359.26H411.26V355.32H407.26ZM399.37 351.37V355.32H395.37V359.26H387.48V351.37H395.37V347.42H399.37V351.37Z" fill="#2CCE78"/>
<path d="M411.21 284.26H407.26V288.21H411.21V284.26Z" fill="#2661B5"/>
<path d="M411.21 146.11H407.26H403.32V150.05H399.37H395.42V154V157.95H399.37H403.32V154H407.26H411.21V150.05V146.11Z" fill="#2CCE78"/>
<path d="M411.21 130.32H407.26V134.26H411.21V130.32Z" fill="#34E890"/>
<path d="M403.32 130.32V126.37H399.37H395.42V130.32V134.26H399.37H403.32H407.26V130.32H403.32Z" fill="#2CCE78"/>
<path d="M407.26 102.69H411.21V98.74H407.26H403.32V102.69H407.26Z" fill="#2661B5"/>
<path d="M399.37 367.16V371.11H395.42H391.48V375.05H395.42H399.37H403.32V371.11V367.16H399.37Z" fill="#2661B5"/>
<path d="M395.42 351.37H391.48H387.53V355.32V359.26H391.48H395.42V355.32H399.37V351.37V347.42H395.42V351.37Z" fill="#34E890"/>
<path d="M399.37 197.42H395.42V201.37V205.32H399.37V201.37V197.42Z" fill="#34E890"/>
<path d="M399.37 197.42V201.37V205.32H403.32V209.26V213.21H407.26V217.16H411.21V213.21H415.16V217.16H411.21V221.11H415.16H419.11V217.16H423.05V213.21H419.11V209.26H415.16V205.32H411.21V201.37H407.26H403.32V197.42V193.47V189.53H399.37V193.47H395.42V197.42H399.37Z" fill="#3E79D6"/>
<path d="M395.42 102.69H399.37H403.32V98.74H399.37H395.42V102.69Z" fill="#3E79D6"/>
<path d="M399.37 94.79V98.74H403.32H407.26H411.21V102.69H415.16H419.11H423.05V98.74H419.11H415.16V94.79H411.21H407.26H403.32V90.84H399.37H395.42V94.79H399.37Z" fill="#2CCE78"/>
<path d="M395.42 371.11H399.37V367.16H403.32V363.21H399.37H395.42V367.16H391.48H387.53V371.11V375.05H391.48V371.11H395.42Z" fill="#34E890"/>
<path d="M391.48 169.79H395.42V165.84V161.9H391.48V165.84H387.53H383.58V169.79H387.53H391.48Z" fill="#2CCE78"/>
<path d="M395.42 98.74H399.37V94.79H395.42H391.48V98.74H395.42Z" fill="#2661B5"/>
<path d="M391.48 189.53H387.53V185.58H383.58V181.63H379.63V177.69H375.69V173.74H379.63V169.79V165.84H375.69H371.74V169.79V173.74H367.79H363.84V177.69V181.63H367.79H371.74H375.69V185.58H371.74V189.53H375.69H379.63H383.58V193.47H379.63V197.42H383.58H387.53V201.37V205.32H391.48V209.26H387.53V213.21H391.48H395.42V209.26H399.37V205.32H395.42V201.37V197.42V193.47H391.48V189.53Z" fill="#2CCE78"/>
<path d="M387.53 177.69H383.58V181.63H387.53H391.48V177.69H387.53Z" fill="#2CCE78"/>
<path d="M391.48 94.79H387.53V98.74H391.48V94.79Z" fill="#3E79D6"/>
<path d="M387.53 371.11H383.58V375.05H352V371.11H344.11V367.16H340.11V359.26H336.16V355.32H332.16V359.26H328.22V355.32H332.16V351.37H324.27V347.42H320.27V355.32H312.38V351.37H308.38V347.42H320.22V343.47H316.28V339.53H320.22V335.58H308.58V331.58H300.69V335.58H296.69V339.53H288.79V335.58H284.9V327.69H281V331.63H277V335.63H281V339.58H273.1V343.52H269.11V335.63H273.05V331.63H277.05V327.69H273.05V323.74H265.16V315.84H261.21V311.9H257.21V315.84H253.32V319.79H245.42V315.84H253.32V304H249.32V280.32H245.42V284.26H241.48V288.26H237.53V292.21H233.53V288.26H229.63V296.16H217.79V300.1H233.58V296.16H241.48V300.1H233.58V304H221.74V308H225.74V312H229.68V319.89H233.63V315.94H237.63V311.9H241.58V315.84H237.53V319.79H241.48V331.63H245.42V335.63H249.37V339.58H253.37V343.52H257.31V347.47H261.31V351.42H269.21V355.37H273.15V359.31H281V363.26H288.89V367.26H296.79V371.21H312.58V375.15H320.47V379H391.53V375.05H387.58L387.53 371.11ZM241.48 308V304H245.42V308H241.48ZM292.79 355.37H281V343.47H288.89V347.42H284.9V351.37H292.79V355.37ZM296.74 351.42V347.47H300.74V351.42H296.74ZM312.53 363.26H308.53V367.26H300.69V359.36H304.63V355.42H308.63V359.36H312.63L312.53 363.26Z" fill="#3E79D6"/>
<path d="M383.58 181.63V185.58H387.53V189.53H391.48V193.47H395.42V189.53V185.58H391.48V181.63H387.53H383.58Z" fill="#34E890"/>
<path d="M387.53 157.95H383.58V161.9H387.53V157.95Z" fill="#2CCE78"/>
<path d="M387.53 90.84H383.58V94.79H387.53V90.84Z" fill="#2661B5"/>
<path d="M387.53 90.84V94.79H391.48H395.42V90.84H391.48V86.9H387.53H383.58V90.84H387.53Z" fill="#34E890"/>
<path d="M383.58 363.21V359.26V355.32V351.37V347.42V343.47H387.53H391.48H395.42V339.53V335.58H391.48V331.63H395.42V327.69H399.37V323.74V319.79H403.32V315.84V311.9H407.26V315.84V319.79V323.74V327.69H411.21V323.74V319.79H415.16V315.84V311.9H419.11H423.05V307.95H419.11V304V300.05H415.16V304H411.21H407.26V300.05H403.32V296.11H399.37H395.42V300.05H391.48V304H387.53V307.95H383.58H379.63V311.9V315.84H375.69H371.74V319.79H367.79V323.74H363.84V319.79H359.9H355.95V315.84H352H348.05H344.11H340.16H336.21V311.9H332.26H328.32H324.37V315.84V319.79H328.32H332.26V323.74H328.32H324.37H320.42H316.48H312.53V319.79H308.58H304.63V315.84H300.69H296.74H292.79H288.84V311.9H284.9H280.95V307.95H277H273.05V304H269.11V300.05H265.16H261.21V296.11H257.26H253.32H249.37V300.05V304H253.32V307.95H257.26V311.9H261.21H265.16H269.11V315.84H273.05V319.79H277H280.95V323.74H284.9H288.84H292.79H296.74H300.69H304.63H308.58V327.69H312.53H316.48H320.42V331.63H324.37V335.58V339.53H320.42V343.47V347.42H324.37V343.47H328.32V347.42H324.37V351.37H328.32H332.26V347.42V343.47H336.21V339.53H340.16V335.58H344.11H348.05V331.63H352H355.95H359.9V335.58V339.53V343.47H363.84H367.79H371.74H375.69H379.63V347.42V351.37H375.69V355.32H379.63V359.26V363.21V367.16V371.11V375.05H383.58V371.11V367.16V363.21Z" fill="#34E890"/>
<path d="M383.58 102.69H387.53V106.63V110.58H391.48H395.42H399.37H403.32V106.63H399.37V102.69H395.42V98.74H391.48H387.53V94.79H383.58V98.74H379.63V102.69H383.58Z" fill="#2CCE78"/>
<path d="M383.58 94.79H379.63V98.74H383.58V94.79Z" fill="#34E890"/>
<path d="M379.63 367.16V363.21V359.26V355.32H375.69V359.26H371.74H367.79V363.21H363.84H359.9V367.16H355.95V371.11H359.9V375.05H363.84H367.79H371.74H375.69H379.63V371.11V367.16Z" fill="#2CCE78"/>
<path d="M379.63 288.21H375.69V292.16H379.63V288.21Z" fill="#D3BE8C"/>
<path d="M379.63 272.42H375.69V276.37H379.63V272.42Z" fill="#D3BE8C"/>
<path d="M359.9 221.11H363.84H367.79H371.74V217.16H375.69H379.63H383.58V213.21V209.26H379.63V205.32H375.69V201.37H371.74H367.79V205.32H371.74V209.26H367.79H363.84V205.32H359.9H355.95V209.26V213.21V217.16V221.11V225.05H359.9V221.11Z" fill="#3E79D6"/>
<path d="M379.63 110.58H383.58V106.63H379.63V102.69H375.69H371.74V106.63V110.58H375.69H379.63Z" fill="#2CCE78"/>
<path d="M379.63 98.74H375.69V102.69H379.63V98.74Z" fill="#34E890"/>
<path d="M375.69 90.84H371.74V94.79H363.84V90.84H348.05V94.79H344.11V98.79H336.21V102.79H332.21V110.68H328.27V114.68H324.32V106.78H328.27V98.74H312.53V102.74H320.42V106.68H316.48V118.47H312.48V122.47H304.58V126.42H312.48V134.31H316.48V138.31H320.42V142.26H312.53V158H316.53V154H320.47V150H316.53V146.11H320.47V150.05H324.47V146.11H328.42V142.11H324.47V134.21H328.42V130.32H332.36V122.42H328.42V126.37H320.52V122.42H324.52V118.42H332.41V122.42H336.41V126.37H340.36V118.47H336.41V114.53H340.36V118.47H344.36V110.58H348.3V118.47H344.36V122.47H356V114.53H360V126.37H363.94V130.37H356V126.37H352V130.37H348.05V126.37H344.11V130.37H332.26V134.31H336.26V138.31H356V142.26H360V138.21H363.94V134.21H367.89V130.32H371.89V118.47H375.84V114.53H371.89V110.53H367.89V102.69H375.79V98.69H379.73V94.69H383.73V86.9H379.73V90.84H375.69ZM356 106.63V110.58H352V102.69H356V106.63Z" fill="#3E79D6"/>
<path d="M375.69 300.05H371.74V304H375.69V300.05Z" fill="#E5D3A1"/>
<path d="M375.69 276.37H371.74V280.32H375.69V276.37Z" fill="#D3BE8C"/>
<path d="M375.69 252.69H371.74V256.63H375.69V252.69Z" fill="#3E79D6"/>
<path d="M375.69 248.74H371.74V252.69H375.69V248.74Z" fill="#2661B5"/>
<path d="M375.69 90.84H379.63V86.9H375.69H371.74V90.84H375.69Z" fill="#2661B5"/>
<path d="M367.79 355.32V359.26H371.74H375.69V355.32H371.74H367.79Z" fill="#34E890"/>
<path d="M371.74 280.32H367.79V284.26H371.74V280.32Z" fill="#D3BE8C"/>
<path d="M371.74 252.69H367.79V256.63H371.74V252.69Z" fill="#2661B5"/>
<path d="M371.74 102.69H367.79V106.63V110.58H371.74V106.63V102.69Z" fill="#34E890"/>
<path d="M363.84 296.11V300.05H359.9V304H355.95H352V307.95H348.05H344.11H340.16V311.9H344.11H348.05H352H355.95H359.9H363.84H367.79V307.95V304V300.05H371.74V296.11H367.79V292.16H363.84V296.11Z" fill="#E5D3A1"/>
<path d="M367.79 288.21H363.84V292.16H367.79V288.21Z" fill="#D3BE8C"/>
<path d="M367.79 90.84H363.84V94.79H367.79V90.84Z" fill="#34E890"/>
<path d="M359.9 359.26V363.21H363.84H367.79V359.26H363.84H359.9Z" fill="#34E890"/>
<path d="M363.84 351.37V347.42H359.9H355.95V351.37H359.9H363.84Z" fill="#34E890"/>
<path d="M363.84 284.26H359.9V288.21H363.84V284.26Z" fill="#D3BE8C"/>
<path d="M359.9 280.32H355.95V284.26H352V288.21H355.95V292.16H359.9H363.84V288.21H359.9V284.26H363.84V288.21H367.79V292.16H371.74H375.69V288.21H379.63V292.16H375.69V296.11H379.63H383.58V292.16V288.21V284.26V280.32V276.37V272.42H379.63V276.37H375.69V280.32H371.74V284.26H367.79V280.32H363.84H359.9Z" fill="#E5D3A1"/>
<path d="M355.95 371.11V367.16H359.9V363.21H355.95V359.26H352V363.21H348.05H344.11V359.26H348.05V355.32H344.11H340.16V351.37H344.11V347.42H348.05V343.47H344.11H340.16V347.42H336.21V351.37H332.26V355.32H336.21V359.26H340.16V363.21V367.16H344.11V371.11H348.05H352V375.05H355.95H359.9V371.11H355.95Z" fill="#34E890"/>
<path d="M359.9 359.26H355.95V363.21H359.9V359.26Z" fill="#2CCE78"/>
<path d="M359.9 355.32H355.95V359.26H359.9V355.32Z" fill="#34E890"/>
<path d="M359.9 304V300.05H363.84V296.11V292.16H359.9H355.95V296.11H352V300.05V304H355.95H359.9Z" fill="#D3BE8C"/>
<path d="M355.95 130.32H359.9H363.84V126.37H359.9V122.42V118.47V114.53H355.95V118.47V122.42V126.37V130.32Z" fill="#BED4F4"/>
<path d="M352 355.32V351.37H348.05V347.42H344.11V351.37H340.16V355.32H344.11H348.05V359.26H344.11V363.21H348.05H352V359.26H355.95V355.32H352Z" fill="#2CCE78"/>
<path d="M355.95 351.37H352V355.32H355.95V351.37Z" fill="#34E890"/>
<path d="M355.95 292.16H352V296.11H355.95V292.16Z" fill="#E5D3A1"/>
<path d="M356 233V229H352V225.05H348.05V240.84H344.11V244.79H340.11V248.79H336.16V244.79H332.16V240.84H340.06V236.9H336.11V232.9H328.22V240.79H320.32V236.9H324.32V229H316.43V225.05H312.43V236.9H308.43V225.05H312.43V221.11H308.43V217.11H304.43V221.11H296.74V225.05H292.79V229H288.79V240.84H292.79V244.79H304.63V240.84H316.48V244.79H320.42V248.79H316.48V256.68H324.37V260.68H336.21V264.63H340.16V260.68H344.16V256.68H367.84V252.74H371.84V248.79H375.79V252.74H379.73V248.79H383.73V233H379.73V237H367.79V240.94H359.9V236.9H355.9L356 233ZM332.31 252.74H328.37V248.79H332.31V252.74Z" fill="#3E79D6"/>
<path d="M355.95 142.16H352V146.11H355.95V142.16Z" fill="#3E79D6"/>
<path d="M355.95 138.21H352V142.16H355.95V138.21Z" fill="#2661B5"/>
<path d="M352 106.63V110.58H355.95V106.63V102.69H352V106.63Z" fill="#2661B5"/>
<path d="M352 347.42H348.05V351.37H352V347.42Z" fill="#34E890"/>
<path d="M352 335.58H348.05V339.53H352V335.58Z" fill="#34E890"/>
<path d="M352 146.11H348.05V150.05H352V146.11Z" fill="#3E79D6"/>
<path d="M348.05 114.53V110.58H344.11V114.53V118.47H348.05V114.53Z" fill="#2661B5"/>
<path d="M348.05 90.84H352H355.95H359.9H363.84H367.79V94.79H371.74V90.84V86.9H367.79H363.84H359.9H355.95H352H348.05H344.11V90.84H348.05Z" fill="#2CCE78"/>
<path d="M344.11 300.05V296.11H348.05H352V292.16H355.95V288.21H352V284.26H355.95V280.32H359.9H363.84H367.79V276.37H363.84V272.42H359.9H355.95V276.37H352V272.42H348.05V276.37H344.11H340.16V272.42H336.21H332.26H328.32H324.37V276.37V280.32H328.32H332.26V284.26H328.32V288.21H332.26H336.21V284.26H340.16H344.11H348.05V288.21H344.11V292.16H340.16V296.11H336.21V300.05H340.16H344.11Z" fill="#D3BE8C"/>
<path d="M340.16 304H344.11H348.05H352V300.05V296.11H348.05H344.11V300.05H340.16H336.21V304H340.16Z" fill="#E5D3A1"/>
<path d="M340.16 292.16H344.11V288.21H348.05V284.26H344.11H340.16H336.21V288.21H332.26H328.32V292.16H332.26H336.21V296.11H340.16V292.16Z" fill="#E5D3A1"/>
<path d="M340.16 130.32H344.11V126.37H348.05V130.32H352V126.37H355.95V122.42H352H348.05H344.11V118.47H340.16V122.42V126.37H336.21V122.42H332.26V126.37V130.32H336.21H340.16Z" fill="#2661B5"/>
<path d="M340.16 114.53H336.21V118.47H340.16V114.53Z" fill="#2661B5"/>
<path d="M336.21 347.42H340.16V343.47H344.11H348.05V347.42H352V351.37H355.95V347.42H359.9H363.84V351.37H359.9H355.95V355.32H359.9V359.26H363.84H367.79V355.32H371.74H375.69V351.37H379.63V347.42V343.47H375.69H371.74H367.79H363.84H359.9V339.53V335.58V331.63H355.95H352H348.05V335.58H352V339.53H348.05V335.58H344.11H340.16V339.53H336.21V343.47H332.26V347.42V351.37H336.21V347.42Z" fill="#2CCE78"/>
<path d="M336.21 311.9V315.84H340.16H344.11H348.05H352H355.95V319.79H359.9H363.84V323.74H367.79V319.79H371.74V315.84H375.69H379.63V311.9V307.95H383.58H387.53V304H391.48V300.05H395.42V296.11H399.37H403.32V300.05H407.26V304H411.21H415.16V300.05V296.11H411.21V292.16H407.26H403.32V288.21H399.37V284.26H395.42V280.32V276.37H391.48V272.42H387.53V268.47H383.58H379.63V272.42H383.58V276.37V280.32V284.26V288.21V292.16V296.11H379.63H375.69V292.16H371.74H367.79V296.11H371.74V300.05H375.69V304H371.74V300.05H367.79V304V307.95V311.9H363.84H359.9H355.95H352H348.05H344.11H340.16V307.95H344.11H348.05H352V304H348.05H344.11H340.16H336.21V300.05H332.26H328.32V304H324.37V307.95H328.32V311.9H332.26H336.21Z" fill="#D3BE8C"/>
<path d="M332.26 292.16H328.32V288.21H324.37V292.16V296.11H328.32H332.26H336.21V292.16H332.26Z" fill="#D3BE8C"/>
<path d="M332.26 240.84V244.79H336.21V248.74H340.16V244.79H344.11V240.84H340.16H336.21H332.26Z" fill="#2661B5"/>
<path d="M336.21 229H332.26V232.95H336.21V229Z" fill="#2661B5"/>
<path d="M336.21 169.79H332.26V173.74H336.21V169.79Z" fill="#2661B5"/>
<path d="M336.21 150.05H332.26V154H336.21V150.05Z" fill="#3E79D6"/>
<path d="M336.21 134.26H332.26V138.21H336.21V134.26Z" fill="#2661B5"/>
<path d="M332.26 355.32H328.32V359.26H332.26V355.32Z" fill="#2661B5"/>
<path d="M332.26 248.74H328.32V252.69H332.26V248.74Z" fill="#2661B5"/>
<path d="M332.26 221.11H328.32V217.16H324.37H320.42V213.21H316.48V217.16V221.11H320.42V225.05H324.37H328.32V229H332.26V225.05V221.11Z" fill="#3E79D6"/>
<path d="M332.26 138.21V134.26H328.32V138.21V142.16H332.26V138.21Z" fill="#3E79D6"/>
<path d="M332.26 130.32H328.32V134.26H332.26V130.32Z" fill="#2661B5"/>
<path d="M328.32 118.47H324.37V122.42H320.42V126.37H324.37H328.32V122.42H332.26V118.47H328.32Z" fill="#BED4F4"/>
<path d="M328.32 343.47H324.37V347.42H328.32V343.47Z" fill="#2CCE78"/>
<path d="M328.32 134.26H324.37V138.21V142.16H328.32V138.21V134.26Z" fill="#2661B5"/>
<path d="M324.37 335.58V331.63H320.42V327.69H316.48H312.53H308.58V323.74H304.63H300.69H296.74H292.79H288.84H284.9H280.95V319.79H277H273.05V315.84H269.11V311.9H265.16H261.21V315.84H265.16V319.79H269.11V323.74H273.05H277V327.69H280.95H284.9V331.63H288.84H292.79V327.69H296.74H300.69H304.63V331.63H308.58V335.58H312.53H316.48H320.42V339.53H324.37V335.58Z" fill="#2CCE78"/>
<path d="M320.42 339.53H316.48V343.47H320.42V339.53Z" fill="#2661B5"/>
<path d="M316.48 292.16V296.11H320.42V292.16V288.21H316.48V292.16Z" fill="#D3BE8C"/>
<path d="M320.42 272.42H316.48V276.37H320.42V272.42Z" fill="#D3BE8C"/>
<path d="M320.42 244.79H316.48V248.74H320.42V244.79Z" fill="#2661B5"/>
<path d="M316.48 181.63V185.58V189.53H320.42V185.58H324.37H328.32V181.63H332.26V177.69H336.21V173.74H332.26V169.79H336.21H340.16V165.84H336.21H332.26V161.9V157.95H328.32V161.9H324.37V165.84H328.32V169.79H324.37V173.74V177.69V181.63H320.42V177.69H316.48V181.63Z" fill="#3E79D6"/>
<path d="M320.42 173.74H316.48V177.69H320.42V173.74Z" fill="#2661B5"/>
<path d="M320.42 146.11H316.48V150.05H320.42V146.11Z" fill="#2661B5"/>
<path d="M312.53 347.42H308.58V351.37H312.53V355.32H316.48H320.42V351.37V347.42H316.48H312.53Z" fill="#2661B5"/>
<path d="M316.48 173.74H312.53V177.69H316.48V173.74Z" fill="#3E79D6"/>
<path d="M312.53 165.84H308.53V177.69H312.53V173.69H320.42V181.58H324.42V169.79H328.37V165.79H324.42V161.9H328.37V158H332.31V165.89H340.21V169.89H336.26V177.79H332.26V181.73H328.32V185.73H320.42V189.73H316.48V177.69H312.48V181.63H308.48V189.53H304.48V193.47H300.69V197.47H296.69V201.47H281V205.42H285V209.36H288.94V217.26H284.9V221.26H277V217.26H273V221.26H269.11V229H265.11V236.9H269.11V240.84H277V244.79H284.9V240.84H288.84V229H292.84V225.05H296.79V221.11H304.68V217.11H308.68V221.11H312.68V225.05H316.68V229H324.57V236.9H320.57V240.84H328.47V233H332.41V229H328.47V225.05H320.57V221.11H316.63V213.21H320.57V217.16H328.47V221.16H332.41V229H336.41V236.9H340.36V240.84H348.25V225.05H352V229H356V236.9H363.89V232.9H359.9V229H363.84V225.05H375.69V221.11H387.53V217.11H403.32V205.32H399.37V209.26H395.37V213.26H387.48V209.26H391.43V205.32H387.48V197.42H379.58V193.42H383.58V189.48H371.74V185.48H375.69V181.48H363.84V173.74H371.74V165.84H379.63V173.74H375.69V177.74H379.63V181.68H383.63V177.69H391.53V181.63H395.47V177.69H403.37V173.69H407.31V169.79H403.37V161.9H407.31V154H403.37V158H395.47V150.1H403.37V146.11H411.26V142.11H423.1V138.21H407.26V134.21H395.42V126.37H403.32V130.37H407.26V122.47H411.26V118.47H399.37V114.53H407.26V110.53H415.16V114.53H423.05V110.53H419.11V106.63H411.21V102.69H399.37V106.63H403.32V110.58H387.53V102.69H379.63V106.63H383.63V110.58H371.74V114.58H375.69V118.52H371.74V130.32H367.74V134.26H363.79V138.26H359.9V142.21H355.9V146.21H352V150.15H348.05V146.11H352V138.21H332.26V142.16H328.32V146.16H324.37V150.1H320.37V154.1H316.43V158.1H312.43V165.99L312.53 165.84ZM383.58 158H387.53V162H383.58V158ZM383.58 165.89H391.48V161.9H395.42V169.79H383.58V165.89ZM356 221.11V205.32H363.89V209.26H371.79V205.32H367.79V201.37H375.69V205.32H379.63V209.26H383.63V217.16H371.74V221.16H359.9V225.1H355.9L356 221.11ZM332.26 150.05H336.26V154.05H332.26V150.05Z" fill="#34E890"/>
<path d="M312.53 359.26H308.58V363.21H312.53V359.26Z" fill="#2661B5"/>
<path d="M308.58 229V232.95V236.9H312.53V232.95V229V225.05H308.58V229Z" fill="#34E890"/>
<path d="M308.58 138.21H304.63H300.69H296.74V142.16H300.69H304.63V146.11V150.05V154H308.58V157.95H312.53V154V150.05V146.11V142.16H316.48H320.42V138.21H316.48V134.26H312.53V138.21H308.58Z" fill="#2661B5"/>
<path d="M308.58 106.63V110.58H312.53H316.48V106.63H320.42V102.69H316.48H312.53V106.63H308.58Z" fill="#2661B5"/>
<path d="M312.53 102.69H308.58V106.63H312.53V102.69Z" fill="#3E79D6"/>
<path d="M308.58 102.69H312.53V98.74H316.48H320.42H324.37H328.32V102.69V106.63H324.37V110.58V114.53H328.32V110.58H332.26V106.63V102.69H336.21V98.74H340.16H344.11V94.79H348.05V90.84H344.11V86.9H340.16H336.21H332.26H328.32H324.37H320.42V90.84H316.48H312.53H308.58V94.79V98.74V102.69Z" fill="#2661B5"/>
<path d="M304.63 359.26H300.69V363.21V367.16H304.63H308.58V363.21H304.63V359.26Z" fill="#2661B5"/>
<path d="M308.58 359.26H304.63V363.21H308.58V359.26Z" fill="#3E79D6"/>
<path d="M308.58 355.32H304.63V359.26H308.58V355.32Z" fill="#2661B5"/>
<path d="M304.63 173.74H300.69V177.69H304.63H308.58V173.74H304.63Z" fill="#2661B5"/>
<path d="M308.58 161.9H304.63V165.84V169.79H308.58V165.84V161.9Z" fill="#2661B5"/>
<path d="M304.63 134.26H308.58H312.53V130.32V126.37H308.58H304.63V130.32V134.26Z" fill="#2661B5"/>
<path d="M304.63 106.63H300.69V110.58H304.63H308.58V106.63H304.63Z" fill="#3E79D6"/>
<path d="M308.58 102.69H304.63V106.63H308.58V102.69Z" fill="#2661B5"/>
<path d="M300.69 327.69H296.74V331.63H292.79V335.58H288.84V339.53H292.79H296.74V335.58H300.69V331.63H304.63V327.69H300.69Z" fill="#2661B5"/>
<path d="M300.69 130.32H296.74V134.26V138.21H300.69H304.63H308.58H312.53V134.26H308.58H304.63V130.32V126.37H300.69V130.32Z" fill="#3E79D6"/>
<path d="M300.69 347.42H296.74V351.37H300.69V347.42Z" fill="#2661B5"/>
<path d="M300.69 165.84H296.74V169.79H300.69V165.84Z" fill="#2661B5"/>
<path d="M300.69 157.95H296.74V161.9H300.69V157.95Z" fill="#2661B5"/>
<path d="M296.74 327.69H292.79V331.63H296.74V327.69Z" fill="#3E79D6"/>
<path d="M296.74 189.53V185.58H292.79V181.63V177.69H296.74V173.74V169.79H292.79V173.74H288.84V177.69V181.63H284.9H280.95V185.58H277V189.53V193.47H280.95V189.53H284.9V193.47V197.42H288.84H292.79H296.74V193.47V189.53Z" fill="#34E890"/>
<path d="M296.74 177.69H292.79V181.63H296.74V177.69Z" fill="#2661B5"/>
<path d="M296.74 146.11H292.79V150.05H296.74V146.11Z" fill="#2661B5"/>
<path d="M296.74 130.32H292.79V134.26H288.84V138.21V142.16H292.79V138.21H296.74V134.26V130.32Z" fill="#2661B5"/>
<path d="M296.74 102.69H300.69V98.74H304.63H308.58V94.79H304.63H300.69H296.74V98.74H292.79H288.84V102.69H292.79H296.74Z" fill="#2CCE78"/>
<path d="M292.79 331.63H288.84V335.58H292.79V331.63Z" fill="#3E79D6"/>
<path d="M292.79 240.84H288.84V244.79H292.79V240.84Z" fill="#2661B5"/>
<path d="M292.79 169.79H288.84V173.74H292.79V169.79Z" fill="#2661B5"/>
<path d="M284.9 351.37V347.42H288.84V343.47H284.9H280.95V347.42V351.37V355.32H284.9H288.84H292.79V351.37H288.84H284.9Z" fill="#2661B5"/>
<path d="M288.84 331.63H284.9V335.58H288.84V331.63Z" fill="#2661B5"/>
<path d="M288.84 240.84H284.9V244.79H288.84V240.84Z" fill="#3E79D6"/>
<path d="M288.84 146.11H284.9V150.05H288.84V146.11Z" fill="#2661B5"/>
<path d="M288.84 114.53H284.9V118.47H288.84V114.53Z" fill="#3E79D6"/>
<path d="M280.95 205.32V201.37H277V205.32V209.26H280.95H284.9V205.32H280.95Z" fill="#2661B5"/>
<path d="M284.9 157.95H288.84V154H292.79V150.05H288.84H284.9V146.11H280.95V150.05V154V157.95H284.9Z" fill="#34E890"/>
<path d="M284.9 118.47H280.95V122.42H284.9V118.47Z" fill="#3E79D6"/>
<path d="M284.9 110.58H288.84V106.63H292.79V102.69H288.84H284.9H280.95V106.63V110.58H284.9Z" fill="#E5D3A1"/>
<path d="M280.95 327.69H277V331.63H280.95V327.69Z" fill="#2661B5"/>
<path d="M280.95 157.95V154H277V157.95V161.9H280.95V157.95Z" fill="#2661B5"/>
<path d="M280.95 122.42H277V126.37H280.95V122.42Z" fill="#3E79D6"/>
<path d="M280.95 110.58H277V114.53H280.95V110.58Z" fill="#E5D3A1"/>
<path d="M273.05 335.58H269.11V339.53V343.47H273.05V339.53H277H280.95V335.58H277V331.63H273.05V335.58Z" fill="#2661B5"/>
<path d="M277 323.74H273.05V327.69H277V323.74Z" fill="#34E890"/>
<path d="M277 169.79V165.84H273.05H269.11V169.79H273.05H277Z" fill="#2661B5"/>
<path d="M277 142.16H273.05V146.11H277V142.16Z" fill="#2661B5"/>
<path d="M277 126.37H273.05V130.32H277V126.37Z" fill="#3E79D6"/>
<path d="M273.05 181.63H269.11V185.58H273.05V181.63Z" fill="#2661B5"/>
<path d="M269.11 126.37V130.32H265.16V134.26H269.11H273.05V130.32V126.37H269.11Z" fill="#2661B5"/>
<path d="M269.11 319.79H265.16V323.74H269.11V319.79Z" fill="#34E890"/>
<path d="M269.11 252.69H265.16V256.63H269.11V252.69Z" fill="#E5D3A1"/>
<path d="M269.11 213.21H265.16V217.16H269.11V213.21Z" fill="#2661B5"/>
<path d="M265.16 146.11V150.05V154H269.11V150.05H273.05V146.11H269.11H265.16Z" fill="#2661B5"/>
<path d="M265.16 244.79H261.21V248.74H265.16V244.79Z" fill="#2661B5"/>
<path d="M265.16 134.26H261.21V138.21H265.16V134.26Z" fill="#2661B5"/>
<path d="M265.16 130.32H269.11V126.37H273.05H277V122.42H280.95V118.47H284.9V114.53H288.84H292.79V110.58H296.74H300.69V106.63H304.63V102.69H308.58V98.74H304.63H300.69V102.69H296.74H292.79V106.63H288.84V110.58H284.9H280.95V114.53H277V118.47H273.05V122.42H269.11H265.16V126.37H261.21V130.32V134.26H265.16V130.32Z" fill="#34E890"/>
<path d="M261.21 260.58H257.26V264.53H261.21V260.58Z" fill="#3E79D6"/>
<path d="M261.21 256.63H257.26V260.58H261.21V256.63Z" fill="#2661B5"/>
<path d="M261.21 236.9H257.26V240.84V244.79H261.21V240.84V236.9Z" fill="#2661B5"/>
<path d="M261.21 189.53H257.26V193.47H261.21V189.53Z" fill="#2661B5"/>
<path d="M257.26 157.95V161.9H261.21H265.16V157.95H261.21V154H257.26V157.95Z" fill="#2661B5"/>
<path d="M261.21 154V150.05H265.16V146.11H269.11H273.05V142.16H277H280.95H284.9H288.84V138.21V134.26H292.79V130.32H296.74H300.69V126.37H304.63V122.42H308.58H312.53V118.47H316.48V114.53V110.58H312.53H308.58H304.63H300.69H296.74H292.79V114.53H288.84V118.47H284.9V122.42H280.95V126.37H277V130.32H273.05V134.26H269.11H265.16V138.21H261.21V142.16H257.26V146.11V150.05V154H261.21Z" fill="#BED4F4"/>
<path d="M261.21 134.26H257.26V138.21H261.21V134.26Z" fill="#3E79D6"/>
<path d="M253.32 307.95V311.9V315.84H257.26V311.9V307.95H253.32Z" fill="#2661B5"/>
<path d="M257.26 296.11H261.21V300.05H265.16H269.11V304H273.05V307.95H277H280.95V311.9H284.9H288.84V315.84H292.79H296.74H300.69V311.9H296.74H292.79V307.95H288.84H284.9V304H280.95H277V300.05H273.05V296.11H269.11H265.16V292.16H261.21V288.21H265.16H269.11V284.26V280.32H265.16H261.21V276.37H265.16V272.42H261.21V268.47H265.16H269.11V264.53H273.05H277H280.95V260.58H277H273.05V256.63H277H280.95V252.69V248.74H277H273.05H269.11H265.16V252.69H269.11V256.63H265.16H261.21V260.58V264.53H257.26H253.32V268.47V272.42H249.37V276.37V280.32V284.26V288.21V292.16V296.11H253.32H257.26Z" fill="#D3BE8C"/>
<path d="M253.32 260.58V256.63H249.37V260.58H245.42V256.63H241.48V260.58V264.53H245.42H249.37V268.47H253.32V264.53H257.26V260.58H253.32Z" fill="#2661B5"/>
<path d="M257.26 232.95H253.32V236.9H257.26V232.95Z" fill="#2661B5"/>
<path d="M257.26 221.11H253.32V225.05H257.26V221.11Z" fill="#2661B5"/>
<path d="M253.32 165.84V169.79V173.74H257.26V169.79V165.84V161.9H253.32V165.84Z" fill="#2661B5"/>
<path d="M253.32 248.74V244.79H249.37V248.74V252.69H253.32V248.74Z" fill="#2661B5"/>
<path d="M253.32 209.26H257.26V205.32H253.32H249.37H245.42V209.26H249.37H253.32Z" fill="#2661B5"/>
<path d="M253.32 193.47H249.37V197.42H253.32V193.47Z" fill="#2661B5"/>
<path d="M245.42 315.84V319.79H249.37H253.32V315.84H249.37H245.42Z" fill="#2661B5"/>
<path d="M249.37 272.42H245.42V276.37H241.48H237.53V280.32H241.48V284.26H245.42V280.32H249.37V276.37V272.42Z" fill="#2661B5"/>
<path d="M249.37 256.63H245.42V260.58H249.37V256.63Z" fill="#3E79D6"/>
<path d="M249.37 252.69H245.42V256.63H249.37V252.69Z" fill="#2661B5"/>
<path d="M249.37 236.9H245.42V240.84H249.37V236.9Z" fill="#2661B5"/>
<path d="M249.37 225.05H245.42V229H249.37V225.05Z" fill="#2661B5"/>
<path d="M249.37 173.74V169.79H245.42V173.74V177.69H249.37V173.74Z" fill="#2661B5"/>
<path d="M249.37 150.05H245.42V154H249.37V150.05Z" fill="#3E79D6"/>
<path d="M245.42 304H241.48V307.95H245.42V304Z" fill="#2661B5"/>
<path d="M245.42 161.9H241.48V165.84H245.42V161.9Z" fill="#2661B5"/>
<path d="M245.42 157.95H241.48V161.9H245.42V157.95Z" fill="#3E79D6"/>
<path d="M245.42 150.05H249.37V146.11H253.32V142.16V138.21H249.37V142.16H245.42V146.11H241.48V150.05V154H245.42V150.05Z" fill="#34E890"/>
<path d="M241.48 319.79H237.53V323.74V327.69H241.48V323.74V319.79Z" fill="#2661B5"/>
<path d="M241.48 311.9H237.53V315.84H241.48V311.9Z" fill="#2661B5"/>
<path d="M241.48 300.05V296.11H237.53H233.58V300.05H237.53H241.48Z" fill="#2661B5"/>
<path d="M237.53 280.32V276.37H233.58V280.32H229.63V284.26H233.58H237.53H241.48V280.32H237.53Z" fill="#3E79D6"/>
<path d="M241.48 244.79H237.53V248.74H241.48V244.79Z" fill="#2661B5"/>
<path d="M241.48 236.9H237.53V240.84H241.48V236.9Z" fill="#2661B5"/>
<path d="M241.48 217.16V213.21H237.53V217.16V221.11H241.48V217.16Z" fill="#2661B5"/>
<path d="M237.53 189.53V193.47H241.48V189.53V185.58H237.53V189.53Z" fill="#2661B5"/>
<path d="M241.48 181.63V185.58H245.42V189.53H249.37V185.58V181.63H245.42V177.69H241.48H237.53V181.63H241.48Z" fill="#2661B5"/>
<path d="M241.48 165.84H237.53V169.79H241.48V165.84Z" fill="#2661B5"/>
<path d="M241.48 161.9H237.53V165.84H241.48V161.9Z" fill="#3E79D6"/>
<path d="M237.53 319.79H233.58V323.74H237.53V319.79Z" fill="#3E79D6"/>
<path d="M237.53 315.84H233.58V319.79H237.53V315.84Z" fill="#2661B5"/>
<path d="M233.58 284.26H229.63V288.21H233.58V292.16H237.53V288.21H241.48V284.26H237.53H233.58Z" fill="#2661B5"/>
<path d="M237.53 272.42H233.58V276.37H237.53V272.42Z" fill="#2661B5"/>
<path d="M237.53 272.42V276.42H245.42V272.42H253.32V268.47H249.32V264.53H241.48V256.63H245.42V252.69H249.37V244.79H253.37V252.69H249.37V256.63H253.37V260.63H257.31V256.63H265.21V248.74H261.21V244.74H257.21V236.9H253.32V232.9H257.26V236.9H261.26V244.79H265.21V248.79H273.1V244.79H277.1V240.84H269.11V236.9H265.11V229H269.11V221.11H273.05V217.11H277.05V221.11H284.95V217.11H288.89V209.21H277V201.32H296.74V197.32H284.9V189.43H281V193.37H277V185.48H281V181.48H288.89V169.79H296.79V165.79H300.79V169.79H296.79V181.63H292.79V185.63H296.74V197.47H300.74V193.47H304.68V189.53H308.68V181.63H312.68V177.69H300.69V173.69H308.58V169.79H304.58V161.9H308.58V165.84H312.58V158H308.58V154H304.58V142.16H296.74V138.21H292.79V142.16H277V146.16H273V150.1H269.11V154.1H265.11V150.1H261.21V158H265.16V162H257.26V173.74H253.32V161.9H257.26V150.05H253.32V158H249.32V162H245.42V165.94H241.48V169.94H237.53V165.94H233.53V173.84H237.53V177.84H245.42V169.94H249.37V177.84H245.42V181.78H249.37V189.68H245.42V185.68H241.48V193.57H237.53V197.57H241.48V201.57H237.53V205.52H229.63V201.57H233.58V193.67H237.58V185.78H241.53V181.78H237.53V177.69H233.53V185.58H225.69V201.37H221.69V205.32H217.79V209.26H221.74V213.26H217.79V217.21H225.69V213.26H233.58V217.21H229.63V225.1H233.58V233H229.63V240.89H225.69V236.9H217.79V240.84H221.74V264.53H217.79V280.32H221.74V272.42H225.74V268.47H229.68V276.37H233.63V272.37L237.53 272.42ZM300.69 158V162H296.69V158H300.69ZM277 158V154H281V146.11H288.89V150.05H292.89V146.11H296.84V150.05H292.79V154.05H288.79V158.05H281V162.05H277V158ZM269.11 165.89H277V169.89H269.11V165.89ZM269.11 181.68H273.05V185.68H269.11V181.68ZM265.11 213.26H269.11V217.21H265.11V213.26ZM257.21 225.1H253.32V221.16H257.26L257.21 225.1ZM257.21 189.58H261.21V193.52H257.21V189.58ZM249.32 193.52H253.32V197.52H249.32V193.52ZM245.37 205.37H257.26V209.31H245.42L245.37 205.37ZM245.37 225.1H249.32V229H245.42L245.37 225.1ZM245.37 236.95H249.32V240.89H245.42L245.37 236.95ZM237.48 217.21V213.26H241.43V221.16H237.53L237.48 217.21ZM237.48 236.95H241.43V240.89H237.53L237.48 236.95ZM229.58 256.68H225.69V252.74H229.63L229.58 256.68ZM229.58 248.79V244.79H233.53V248.79H237.53V244.79H241.48V248.79H237.53V252.74H233.53V248.79H229.58Z" fill="#3E79D6"/>
<path d="M237.53 248.74H233.58V252.69H237.53V248.74Z" fill="#2661B5"/>
<path d="M233.58 197.42V201.37H229.63V205.32H233.58H237.53V201.37H241.48V197.42H237.53V193.47H233.58V197.42Z" fill="#2661B5"/>
<path d="M237.53 173.74H233.58V177.69H237.53V173.74Z" fill="#2661B5"/>
<path d="M233.58 157.95H237.53V154H241.48V150.05V146.11H245.42V142.16H249.37V138.21H253.32V142.16V146.11H249.37V150.05V154H245.42H241.48V157.95H245.42V161.9H249.37V157.95H253.32V154V150.05H257.26V146.11V142.16H261.21V138.21H257.26V134.26H261.21V130.32V126.37H265.16V122.42H269.11H273.05V118.47H277V114.53V110.58H280.95V106.63H277H273.05V110.58H269.11V114.53H265.16H261.21V118.47H257.26V122.42H253.32V126.37H249.37V130.32H245.42V134.26H241.48V138.21H237.53V142.16H233.58V146.11H229.63V150.05V154H233.58V157.95Z" fill="#2661B5"/>
<path d="M233.58 244.79H229.63V248.74H233.58V244.79Z" fill="#2661B5"/>
<path d="M233.58 173.74H229.63V177.69H233.58V173.74Z" fill="#3E79D6"/>
<path d="M229.63 304H233.58V300.05H229.63H225.69H221.74V304H225.69H229.63Z" fill="#2661B5"/>
<path d="M229.63 284.26H225.69V288.21H229.63V284.26Z" fill="#3E79D6"/>
<path d="M229.63 252.69H225.69V256.63H229.63V252.69Z" fill="#2661B5"/>
<path d="M229.63 229H225.69V232.95H229.63V229Z" fill="#3E79D6"/>
<path d="M225.69 296.11H229.63V292.16V288.21H225.69V284.26H229.63V280.32H233.58V276.37H229.63V272.42V268.47H225.69V272.42H221.74V276.37V280.32H217.79V276.37V272.42V268.47V264.53H213.84V268.47H209.9V272.42V276.37V280.32H213.84V284.26V288.21H217.79V292.16V296.11H221.74H225.69Z" fill="#2661B5"/>
<path d="M225.69 173.74H229.63H233.58V169.79V165.84H237.53V161.9H241.48V157.95V154H237.53V157.95H233.58H229.63V161.9V165.84H225.69V169.79H221.74V173.74H225.69Z" fill="#34E890"/>
<path d="M225.69 165.84H229.63V161.9V157.95H233.58V154H229.63H225.69V157.95V161.9H221.74V165.84V169.79H225.69V165.84Z" fill="#2CCE78"/>
<path d="M221.74 229V225.05V221.11H217.79V225.05V229V232.95H221.74V229Z" fill="#3E79D6"/>
<path d="M221.74 193.47H217.79V197.42H221.74V193.47Z" fill="#3E79D6"/>
<path d="M221.74 169.79H217.79V173.74H221.74V169.79Z" fill="#2CCE78"/>
<path d="M217.79 260.58H213.84V264.53H217.79V260.58Z" fill="#3E79D6"/>
<path d="M213.84 264.53H209.9V268.47H213.84V264.53Z" fill="#3E79D6"/>
<path d="M213.84 260.58H217.79V264.53H221.74V240.84H217.79V236.9H225.69V240.84H229.63V233H225.69V229H229.63V233H233.58V225.1H229.63V217.21H233.58V213.26H225.69V217.21H217.79V213.26H221.74V209.26H217.79V205.32H221.74V201.37H225.74V185.58H233.63V177.69H229.63V173.69H217.79V177.69H213.84V185.58H209.9V201.37H206V264.53H213.84V260.58ZM217.79 193.47H221.74V197.47H217.79V193.47ZM217.79 229V221.11H221.74V233H217.79V229ZM209.9 209.26H213.84V213.26H209.9V209.26ZM209.9 225.05H213.84V229H209.9V225.05ZM209.9 236.9V232.9H213.84V240.79H209.9V236.9Z" fill="#2661B5"/>
<path d="M213.84 236.9V232.95H209.9V236.9V240.84H213.84V236.9Z" fill="#3E79D6"/>
<path d="M213.84 225.05H209.9V229H213.84V225.05Z" fill="#3E79D6"/>
<path d="M213.84 209.26H209.9V213.21H213.84V209.26Z" fill="#3E79D6"/>
<path d="M411.94 351.37H407.99V355.31H411.94V351.37Z" fill="white"/>
<path d="M392.2 359.26H388.26V363.21H392.2V359.26Z" fill="white"/>
<path d="M396.15 351.37V347.42H392.2H388.26V351.37H392.2V355.31V359.26H396.15V355.31H400.1H404.05V351.37H400.1H396.15Z" fill="white"/>
<path d="M372.47 339.53V343.47H368.52V347.42H364.57H360.63H356.68V351.37H360.63V355.31H356.68H352.73H348.78V359.26H352.73V363.21H356.68V359.26H360.63V363.21H364.57H368.52H372.47V359.26H368.52V355.31V351.37H372.47V347.42H376.41V343.47V339.53V335.58H372.47V339.53Z" fill="white"/>
<path d="M376.41 351.37H372.47V355.31H376.41V351.37Z" fill="white"/>
<path d="M360.63 339.53H364.57H368.52V335.58H364.57H360.63V339.53Z" fill="white"/>
<path d="M352.73 363.21H348.78V367.16H352.73V363.21Z" fill="white"/>
<path d="M352.73 347.42H348.78V351.37H352.73V347.42Z" fill="white"/>
<path d="M348.78 335.58H344.84H340.89H336.94H332.99V339.53H336.94H340.89V343.47H344.84V339.53H348.78V335.58Z" fill="white"/>
<path d="M356.68 339.53H352.73V343.47V347.42H356.68V343.47V339.53Z" fill="white"/>
<path d="M332.99 347.42H329.05V351.37H332.99V347.42Z" fill="white"/>
<path d="M332.99 339.53H329.05V343.47H332.99V339.53Z" fill="white"/>
<path d="M329.05 371.1V375.05H332.99H336.94V371.1H332.99H329.05Z" fill="white"/>
<path d="M336.94 343.47H332.99V347.42H336.94V343.47Z" fill="white"/>
<path d="M309.31 351.37H313.26H317.2V347.42V343.47V339.53H313.26V335.58H309.31H305.36H301.41H297.47V339.53H301.41V343.47V347.42H305.36V343.47H309.31H313.26V347.42H309.31H305.36V351.37V355.31H309.31V351.37Z" fill="white"/>
<path d="M321.15 355.31H317.2V359.26H321.15V355.31Z" fill="white"/>
<path d="M317.2 363.21H313.26V367.16H317.2V363.21Z" fill="white"/>
<path d="M309.31 371.1V375.05H313.26H317.2V371.1H313.26V367.16H309.31V371.1Z" fill="white"/>
<path d="M281.68 339.53H277.73V343.47H281.68V339.53Z" fill="white"/>
<path d="M285.63 347.42H281.68V351.37H285.63V347.42Z" fill="white"/>
<path d="M285.63 335.58H281.68V339.53H285.63V335.58Z" fill="white"/>
<path d="M281.68 355.31H277.73V351.37V347.42H273.78V351.37H269.84H265.89V347.42V343.47H269.84V339.53H273.78V335.58H269.84H265.89V339.53H261.94V343.47V347.42V351.37V355.31H265.89H269.84H273.78V359.26H277.73H281.68H285.63H289.57V355.31H285.63H281.68Z" fill="white"/>
<path d="M305.36 355.31H301.41V359.26H305.36V355.31Z" fill="white"/>
<path d="M297.47 355.31H293.52V359.26H297.47V355.31Z" fill="white"/>
<path d="M297.47 343.47H293.52V347.42H297.47V343.47Z" fill="white"/>
<path d="M498.78 154H502.78V150H498.78V142.16H494.84V150.05H490.89V142.16H494.84V138.21H490.89V126.37H486.94V114.53H479.05V118.47H475.1V110.58H471.1V114.58H463.21V110.58H467.15V106.63H459.26V110.58H451.36V118.47H447.42V122.47H459.26V134.26H455.31V138.26H447.42V142.21H435.63V146.1H431.68V150.05H443.52V146.1H447.47V154H443.52V158H435.63V154H431.68V158H427.68V161.94H423.73V165.94H415.84V169.94H411.89V173.89H427.68V177.83H435.58V185.73H447.42V189.73H451.36V185.73H455.36V189.73H463.26V185.73H467.2V189.73H463.26V193.67H471.15V185.78H475.15V193.67H479.1V185.78H483V193.67H479.06V197.67H486.95V185.58H494.85V189.58H490.9V197.47H498.79V189.58H502.79V185.58H498.79V181.58H502.79V177.68H498.79V173.74H502.79V169.79H498.79V165.79H502.79V161.79H498.79V158H494.85V154H498.78ZM451.41 165.84H455.41V161.84H459.36V165.84H463.31V169.84H459.36V165.84H455.41V169.84H451.41V165.84ZM483 146.1H479.06V142.16H483V146.1ZM463.26 158H467.2V161.94H463.26V158ZM479.05 154H475.1V150H479.05V154ZM483 161.89H479.06V158H483V161.89ZM479.06 138.21H475.1V134.21H479.05L479.06 138.21ZM486.95 138.21H483V134.21H486.95V138.21ZM483 130.31H479.06V126.37H483V130.31ZM471.15 118.47V122.47H467.2V118.47H471.15ZM459.31 142.16V146.1H463.26V150.05H459.31V146.1H455.36V142.16H459.31ZM447.47 161.89V165.89H443.52V161.89H447.47ZM435.63 161.89V169.79H431.68V161.89H435.63ZM443.52 181.63V177.68H439.52V173.74H443.52V169.79H447.47V173.74H443.52V177.68H447.47V181.63H443.52ZM482.99 181.63V177.68H486.94V181.63H482.99Z" fill="white"/>
<path d="M490.89 197.42H486.94V201.37H490.89V197.42Z" fill="white"/>
<path d="M486.94 201.37H482.99V205.31H486.94V201.37Z" fill="white"/>
<path d="M475.1 205.31H471.15V209.26H475.1V205.31Z" fill="white"/>
<path d="M475.1 193.47H471.15V197.42V201.37H475.1H479.05V197.42H475.1V193.47Z" fill="white"/>
<path d="M455.36 323.74H451.41H447.47H443.52V327.68H447.47H451.41H455.36H459.31V323.74V319.79H455.36V323.74Z" fill="white"/>
<path d="M455.36 193.47V197.42V201.37H451.41H447.47V205.31H451.41H455.36H459.31V209.26H463.26H467.2V205.31H463.26V201.37H459.31V197.42H463.26V193.47H459.31H455.36Z" fill="white"/>
<path d="M455.36 102.68H451.41H447.47H443.52V106.63V110.58H447.47V106.63H451.41H455.36H459.31V102.68H455.36Z" fill="white"/>
<path d="M451.41 197.42V193.47H447.47H443.52V197.42V201.37H447.47V197.42H451.41Z" fill="white"/>
<path d="M435.63 327.68H431.68H427.73H423.78H419.84H415.89H411.94V331.63H415.89H419.84H423.78H427.73H431.68H435.63H439.57H443.52V327.68H439.57H435.63Z" fill="white"/>
<path d="M439.57 197.42H435.63V201.37H439.57V197.42Z" fill="white"/>
<path d="M435.63 193.47H431.68V197.42H435.63V193.47Z" fill="white"/>
<path d="M423.78 201.37H419.84V205.31H423.78V201.37Z" fill="white"/>
<path d="M415.89 205.31H411.94V209.26H415.89V205.31Z" fill="white"/>
<path d="M407.99 323.74V319.79H404.05H400.1V323.74H404.05V327.68H407.99H411.94V323.74H407.99Z" fill="white"/>
<path d="M407.99 276.37V280.31V284.26H411.94V280.31V276.37V272.42H407.99V276.37Z" fill="white"/>
<path d="M411.94 173.74H407.99V177.68H411.94V173.74Z" fill="white"/>
<path d="M404.05 181.63V185.58H407.99H411.94V189.53H415.89V185.58H419.84V189.53V193.47V197.42H423.78H427.73V193.47H423.78V189.53V185.58H427.73H431.68V181.63H427.73H423.78V177.68H419.84V181.63H415.89H411.94H407.99V177.68H404.05V181.63Z" fill="white"/>
<path d="M400.1 284.26V288.21H404.05H407.99V284.26H404.05H400.1Z" fill="white"/>
<path d="M400.1 260.58V264.53H404.05V268.47H407.99V264.53V260.58H404.05H400.1Z" fill="white"/>
<path d="M404.05 189.53H400.1V193.47H404.05V189.53Z" fill="white"/>
<path d="M400.1 315.84H396.15V319.79H400.1V315.84Z" fill="white"/>
<path d="M400.1 181.63H396.15V185.58H400.1V181.63Z" fill="white"/>
<path d="M396.15 256.63H392.2H388.26H384.31V260.58H388.26H392.2H396.15V256.63Z" fill="white"/>
<path d="M392.2 311.89V307.95H388.26H384.31V311.89H388.26H392.2Z" fill="white"/>
<path d="M388.26 292.16V296.1H392.2H396.15V292.16H392.2H388.26Z" fill="white"/>
<path d="M392.2 205.31V201.37H388.26H384.31V205.31H388.26H392.2Z" fill="white"/>
<path d="M392.2 193.47H388.26V197.42H392.2V193.47Z" fill="white"/>
<path d="M388.26 189.53H392.2H396.15V185.58H392.2H388.26H384.31V189.53V193.47H388.26V189.53Z" fill="white"/>
<path d="M384.31 197.42V193.47H380.36V189.53H376.41V193.47V197.42H380.36H384.31Z" fill="white"/>
<path d="M380.36 201.37H376.41V205.31H380.36V201.37Z" fill="white"/>
<path d="M372.47 288.21V292.16H376.41V288.21V284.26H372.47V288.21Z" fill="white"/>
<path d="M372.47 276.37V280.31H376.41V276.37V272.42H372.47V276.37Z" fill="white"/>
<path d="M372.47 260.58V264.53V268.47H376.41V264.53H380.36V260.58H376.41H372.47Z" fill="white"/>
<path d="M376.41 197.42H372.47V201.37H376.41V197.42Z" fill="white"/>
<path d="M368.52 296.1V300.05H364.57V304H368.52H372.47H376.41V300.05V296.1H372.47H368.52Z" fill="white"/>
<path d="M340.89 296.1V300.05V304H344.84H348.78H352.73H356.68H360.63V300.05V296.1H356.68H352.73V300.05H348.78H344.84V296.1H340.89Z" fill="white"/>
<path d="M332.99 300.05V304H336.94V300.05V296.1H332.99V292.16H329.05H325.1V296.1V300.05H329.05H332.99Z" fill="white"/>
<path d="M332.99 98.74V94.79H336.94H340.89V90.84H336.94H332.99H329.05H325.1V94.79V98.74H329.05H332.99Z" fill="white"/>
<path d="M329.05 272.42H325.1V276.37H329.05V272.42Z" fill="white"/>
<path d="M329.05 252.68H325.1V256.63H329.05V252.68Z" fill="white"/>
<path d="M321.15 296.1H317.2V300.05H321.15V296.1Z" fill="white"/>
<path d="M321.15 272.42H317.2V276.37H321.15V272.42Z" fill="white"/>
<path d="M321.15 260.58H317.2V264.53H321.15V260.58Z" fill="white"/>
<path d="M321.15 94.79H317.2V98.74H321.15V94.79Z" fill="white"/>
<path d="M317.2 300.05H313.26V304H317.2V300.05Z" fill="white"/>
<path d="M309.31 276.37V272.37H305.31V280.26H301.31V272.37H297.47V268.42H301.41V264.48H297.47V252.68H301.41V248.74H305.41V244.74H293.52V252.63H289.52V244.74H281.68V248.74H273.78V236.89H269.84V233H265.84V236.94H261.84V244.84H265.84V252.73H261.84V244.84H254.05V248.84H246.15V244.84H250.15V240.89H246.15V236.89H250.15V240.89H254.1V225.05H250.1V217.16H242.2V221.1H246.15V225.1H242.2V221.1H238.26V225.1H234.31V221.1H230.36V213.21H226.41V209.21H222.47V201.32H230.36V205.26H234.31V189.53H238.26V185.53H234.31V177.63H230.36V181.58H218.52V185.58H214.57V177.68H226.41V173.74H230.36V169.79H234.31V165.79H230.36V158H222.47V154H218.52V158H214.57V161.94H210.63V169.84H206.68V173.79H202.73V177.73H206.73V189.58H202.73V193.52H206.73V197.52H202.73V256.73H206.73V260.73H214.62V268.62H222.52V272.57H214.62V276.57H218.57V280.51H214.57V284.46H226.41V280.51H222.47V276.57H226.41V264.53H246.15V252.68H254.05V256.63H250.1V264.53H269.84V260.58H273.78V252.68H285.63V256.63H277.73V260.63H273.73V264.58H277.73V268.52H281.73V264.58H285.68V260.63H289.62V264.58H293.62V272.47H289.62V280.36H297.52V288.26H293.52V284.26H289.52V288.26H285.63V284.26H281.68V288.26H265.89V292.21H293.52V304H301.41V296.1H297.47V292.16H309.31V284.26H317.2V276.37H309.31ZM242.2 240.84H238.26V244.79H242.2V248.79H234.31V244.79H230.36V248.79H226.41V244.79H230.36V240.84H226.41V233H230.36V240.89H238.26V236.89H242.2V240.84ZM242.2 229V233H238.26V229H242.2ZM226.41 225.05V229H218.52V225.05H222.47V221.05H214.57V217.11H222.47V221.05H226.41V225.05ZM218.52 205.31H210.63V201.37H218.52V205.31ZM230.36 197.42H222.47V193.42H230.36V197.42ZM214.57 165.84H222.47V169.84H214.57V165.84ZM210.63 193.47H214.57V197.47H210.63V193.47ZM206.68 221.1H210.68V225.1H206.68V221.1ZM210.68 252.68V248.74H214.62V244.74H210.63V240.79H206.68V236.79H210.68V233H214.62V236.94H218.57V240.94H222.52V248.84H214.62V252.78H218.57V256.73H214.57V252.78L210.68 252.68ZM222.52 260.58V252.68H226.46V260.58H222.52ZM230.41 260.58V256.58H234.36V252.63H238.31V256.58H234.31V260.58H230.41Z" fill="white"/>
<path d="M313.26 256.63H309.31V260.58H313.26V256.63Z" fill="white"/>
<path d="M305.36 296.1V300.05V304H309.31V300.05H313.26V296.1H317.2V292.16H313.26H309.31V296.1H305.36Z" fill="white"/>
<path d="M297.47 232.95V229H301.41V225.05H297.47H293.52H289.57V229V232.95H293.52H297.47Z" fill="white"/>
<path d="M289.57 280.31H285.63V284.26H289.57V280.31Z" fill="white"/>
<path d="M289.57 264.53H285.63V268.47H289.57V264.53Z" fill="white"/>
<path d="M281.68 240.84H277.73V244.79H281.68V240.84Z" fill="white"/>
<path d="M277.73 236.89H281.68H285.63V240.84H289.57V244.79H293.52V240.84V236.89H289.57V232.95H285.63H281.68H277.73H273.78V236.89H277.73Z" fill="white"/>
<path d="M273.78 229V225.05H269.84H265.89H261.94V229H265.89H269.84V232.95H273.78V229Z" fill="white"/>
<path d="M261.94 280.31H257.99V284.26H261.94H265.89H269.84V280.31H273.78V276.37H277.73V272.42H273.78V268.47H269.84V272.42H265.89H261.94V268.47H257.99V272.42H254.05V268.47H250.1V272.42H246.15V276.37H242.2V272.42H238.26H234.31V276.37V280.31V284.26H230.36V288.21H234.31H238.26V292.16H242.2H246.15H250.1V288.21V284.26H246.15V280.31H250.1H254.05V276.37H257.99H261.94H265.89V280.31H261.94Z" fill="white"/>
<path d="M261.94 229H257.99V232.95H261.94V229Z" fill="white"/>
<path d="M257.99 288.21H254.05V292.16H257.99V288.21Z" fill="white"/>
<path d="M238.26 169.79H242.2V165.84V161.89H238.26H234.31V165.84H238.26V169.79Z" fill="white"/>
<path d="M238.26 169.79H234.31V173.74H238.26V169.79Z" fill="white"/>
<path d="M234.31 154V150.05H238.26V146.1H234.31V142.16H230.36H226.41V146.1H222.47V150.05H226.41H230.36V154V157.95H234.31V154Z" fill="white"/>
<path d="M230.36 288.21H226.41V292.16H230.36V288.21Z" fill="white"/>
<path d="M230.36 205.31H226.41V209.26H230.36V205.31Z" fill="white"/>
<path d="M218.52 292.16H214.57V296.1H218.52V292.16Z" fill="white"/>
<path d="M218.52 240.84H214.57V244.79H218.52V240.84Z" fill="white"/>
<path d="M214.57 236.89H210.63V240.84H214.57V236.89Z" fill="white"/>
<path d="M210.63 280.31H206.68V284.26H210.63V280.31Z" fill="white"/>
<path d="M202.73 288.21V292.16V296.1H206.68H210.63V292.16V288.21H206.68V284.26H202.73V288.21Z" fill="white"/>
<path d="M202.73 272.42V276.37H206.68H210.63V272.42H206.68H202.73Z" fill="white"/>
<path d="M206.68 260.58H202.73V264.53H206.68V260.58Z" fill="white"/>
</g>
<path d="M514.581 282.745V278.895H510.731V282.745H514.581Z" fill="#BED4F4"/>
<path d="M506.891 278.895V275.045H503.041V278.895H506.891Z" fill="#BED4F4"/>
<path d="M514.581 278.895V275.045H518.421V271.205H522.271V267.355H518.421H514.581V271.205H510.731V275.045H506.891V278.895H503.041V275.045H506.891V271.205H510.731V267.355H514.581V263.515H518.421V259.665V255.815H522.271V251.975V248.125H526.121V244.285V240.435H522.271V236.585H518.421V240.435H514.581V244.285H510.731V248.125V251.975V255.815V259.665H506.891V263.515V267.355H503.041V271.205H499.191V275.045V278.895V282.745H503.041H506.891H510.731V278.895H514.581Z" fill="#3E79D6"/>
<path d="M518.421 278.895V275.045H514.581V278.895H518.421Z" fill="#BED4F4"/>
<path d="M499.191 275.045V271.205H495.351V275.045H499.191Z" fill="#BED4F4"/>
<path d="M510.731 275.045V271.205H506.891V275.045H510.731Z" fill="#BED4F4"/>
<path d="M522.271 275.045V271.205H518.421V275.045H522.271Z" fill="#BED4F4"/>
<path d="M526.121 275.045V271.205H522.271V275.045H526.121Z" fill="white"/>
<path d="M499.191 267.355H503.041V263.515V259.665H506.891V255.815V251.975V248.125V244.285H510.731V240.435V236.585H514.581V232.745H510.731H506.891V236.585H503.041V240.435H499.191V244.285H495.351V248.125V251.975V255.815V259.665V263.515V267.355V271.205H499.191V267.355Z" fill="#3E79D6"/>
<path d="M503.041 271.205V267.355H499.191V271.205H503.041Z" fill="#BED4F4"/>
<path d="M514.581 271.205V267.355H510.731V271.205H514.581Z" fill="#BED4F4"/>
<path d="M526.121 271.205V267.355H522.271V271.205H526.121Z" fill="#BED4F4"/>
<path d="M503.041 263.515V267.355H506.891V263.515V259.665H503.041V263.515Z" fill="#BED4F4"/>
<path d="M522.271 259.665H526.121V255.815V251.975H529.961V248.125H526.121H522.271V251.975V255.815H518.421V259.665V263.515H514.581V267.355H518.421H522.271V263.515V259.665Z" fill="#BED4F4"/>
<path d="M526.121 259.665H522.271V263.515V267.355H526.121V263.515V259.665Z" fill="#3E79D6"/>
<path d="M506.891 248.125V251.975V255.815V259.665H510.731V255.815V251.975V248.125V244.285H506.891V248.125Z" fill="#BED4F4"/>
<path d="M537.661 248.125V244.285H533.811V248.125H537.661Z" fill="#3E79D6"/>
<path d="M564.581 244.285V240.435V236.585H568.421V232.745V228.895H564.581H560.731V225.045H556.891V221.205V217.355V213.515H553.041V209.665H549.191V205.815V201.975H545.351V205.815V209.665H541.501V213.515H545.351V217.355V221.205V225.045V228.895H549.191H553.041H556.891V232.745V236.585H553.041V240.435V244.285V248.125V251.975H556.891V255.815H560.731H564.581H568.421V251.975H572.271V248.125V244.285H568.421H564.581Z" fill="white"/>
<path d="M499.191 244.285V240.435H495.351V244.285H499.191Z" fill="#BED4F4"/>
<path d="M514.581 244.285V240.435H510.731V244.285H514.581Z" fill="white"/>
<path d="M529.961 240.435V236.585H533.811V232.745H537.661V228.895H533.811H529.961V232.745H526.121H522.271V236.585V240.435H526.121V244.285H529.961V240.435Z" fill="#BED4F4"/>
<path d="M499.191 236.585H503.041V232.745H506.891V228.895H510.731V225.045V221.205H514.581V217.355V213.515H518.421V209.665V205.815H522.271V201.975H518.421V198.125V194.285H514.581H510.731V198.125H506.891H503.041V201.975H499.191V205.815V209.665H495.351V213.515V217.355V221.205V225.045V228.895V232.745V236.585V240.435H499.191V236.585Z" fill="#3E79D6"/>
<path d="M503.041 240.435V236.585H499.191V240.435H503.041Z" fill="#BED4F4"/>
<path d="M537.661 236.585H541.501V232.745V228.895V225.045H537.661V221.205H533.811V217.355V213.515H529.961V209.665V205.815H526.121V201.975H522.271V205.815V209.665H526.121V213.515V217.355H529.961V221.205V225.045V228.895H533.811H537.661V232.745H533.811V236.585H529.961V240.435V244.285H526.121V248.125H529.961V251.975H526.121V255.815V259.665V263.515V267.355H529.961V263.515V259.665V255.815H533.811V251.975V248.125V244.285H537.661V240.435V236.585Z" fill="white"/>
<path d="M506.891 236.585V232.745H503.041V236.585H506.891Z" fill="#BED4F4"/>
<path d="M514.581 232.745V236.585H510.731V240.435H514.581H518.421V236.585V232.745H514.581Z" fill="#BED4F4"/>
<path d="M522.271 236.585V232.745H518.421V236.585H522.271Z" fill="white"/>
<path d="M556.891 236.585V232.745V228.895H553.041H549.191H545.351V225.045V221.205V217.355V213.515H541.501V209.665V205.815V201.975V198.125H537.661V194.285H533.811H529.961V190.435H526.121H522.271V194.285V198.125H526.121V201.975V205.815H529.961V209.665V213.515H533.811V217.355V221.205H537.661V225.045H541.501V228.895V232.745V236.585H537.661V240.435V244.285H541.501V240.435H545.351V236.585H549.191V240.435H553.041V236.585H556.891Z" fill="#3E79D6"/>
<path d="M510.731 228.895H506.891V232.745H510.731H514.581V228.895H510.731Z" fill="#BED4F4"/>
<path d="M518.421 228.895H522.271V225.045H518.421H514.581V228.895V232.745H518.421V228.895Z" fill="#3E79D6"/>
<path d="M522.271 232.745V228.895H518.421V232.745H522.271Z" fill="#BED4F4"/>
<path d="M525.121 232.751V228.901H521.271V232.751H525.121Z" fill="#3E79D6"/>
<path d="M529.961 232.745V228.895H526.121V232.745H529.961Z" fill="white"/>
<path d="M514.581 228.895V225.045H510.731V228.895H514.581Z" fill="white"/>
<path d="M518.421 225.045H522.271V228.895H526.121H529.961V225.045V221.205V217.355H526.121V213.515V209.665H522.271V205.815H518.421V209.665V213.515V217.355V221.205H514.581H510.731V225.045H514.581H518.421Z" fill="#BED4F4"/>
<path d="M518.421 217.355V213.515H514.581V217.355V221.205H518.421V217.355Z" fill="white"/>
<path d="M568.421 217.355H572.271V213.515V209.665H568.421V213.515V217.355Z" fill="white"/>
<path d="M560.731 213.515V209.665H556.891V213.515H560.731Z" fill="white"/>
<path d="M568.421 209.665V205.815H564.581V209.665H568.421Z" fill="white"/>
<path d="M503.041 201.975V198.125H499.191V201.975H503.041Z" fill="#BED4F4"/>
<path d="M510.731 198.125V194.285H514.581H518.421V198.125V201.975H522.271H526.121V198.125H522.271V194.285V190.435H526.121H529.961V194.285H533.811H537.661V190.435H533.811V186.585H529.961H526.121H522.271H518.421H514.581V190.435H510.731H506.891V194.285H503.041V198.125H506.891H510.731Z" fill="#BED4F4"/>
<path d="M545.351 194.285H541.501H537.661V198.125H541.501V201.975V205.815V209.665H545.351V205.815V201.975H549.191V205.815V209.665H553.041V213.515H556.891V209.665H560.731V213.515H556.891V217.355V221.205V225.045H560.731V228.895H564.581H568.421V232.745V236.585H564.581V240.435V244.285H568.421H572.271V240.435H576.121V236.585V232.745V228.895V225.045V221.205V217.355H572.271H568.421V213.515V209.665H564.581V205.815H568.421V201.975H564.581V198.125H560.731H556.891H553.041V194.285H549.191H545.351Z" fill="#BED4F4"/>
<path d="M556.891 198.125H560.731V194.285H556.891H553.041V198.125H556.891Z" fill="white"/>
<path d="M537.661 190.435V194.285H541.501H545.351H549.191H553.041V190.435H549.191H545.351H541.501V186.585H537.661H533.811V190.435H537.661Z" fill="white"/>
<path d="M306.701 436.112V431.343V426.55H311.385V421.757H316.068H320.739H325.423H330.094H334.778V416.963H330.094H325.423H320.739H316.068H311.385H306.701V421.757H302.03V426.55V431.343V436.112V440.917H306.701V436.112Z" fill="#E9EDF4"/>
<path d="M311.385 373.873V369.092H306.701V373.873V378.666H311.385V373.873Z" fill="#3E79D6"/>
<path d="M311.385 412.182V407.389H306.701V412.182V416.963H311.385V412.182Z" fill="#3E79D6"/>
<path d="M320.74 388.228V383.447H316.068V388.228V393.021H320.74V388.228Z" fill="#3E79D6"/>
<path d="M334.778 364.286V359.506H330.094V364.286V369.092H334.778V364.286Z" fill="#3E79D6"/>
<path d="M330.094 421.757H311.385V426.55H306.701V450.492H311.385V455.272H316.068V460.066H330.094V455.272H339.461V450.492H344.132V445.698H348.816V460.066H353.499V464.859H358.17V469.64H390.918V464.859H395.601V460.066H400.285V440.917H395.601V436.124H390.918V431.331H381.563V426.55H395.601V431.331H400.285V440.917H404.956V436.124H409.64V421.757H404.956V416.963H334.778V421.757H330.094ZM386.247 460.066V450.492H376.892V455.272H372.209V445.698H376.892V440.93H386.247V445.698H390.918V460.066H386.247ZM339.461 426.55H344.132V421.757H353.499V426.55H358.17V436.124H353.499V431.331H344.132V436.124H334.778V431.331H330.094V436.124H325.423V445.698H320.74V431.331H325.423V426.55H339.461V426.55Z" fill="white"/>
<path d="M330.094 426.55H325.423V431.343H320.74V436.112V440.917V445.698H325.423V440.917V436.112H330.094V431.343H334.778V436.112H339.461H344.132V431.343H348.816H353.499V436.112H358.17V431.343V426.55H353.499V421.757H348.816H344.132V426.55H339.461H334.778H330.094Z" fill="#E9EDF4"/>
<path d="M339.461 412.182V407.389H334.778V412.182V416.963H339.461V412.182Z" fill="#3E79D6"/>
<path d="M344.132 378.666V373.873H339.461V378.666V383.447H344.132V378.666Z" fill="#3E79D6"/>
<path d="M348.816 445.698H344.132V450.479H339.461V455.285H334.778H330.094V460.066H334.778H339.461H344.132V455.285H348.816V450.479V445.698Z" fill="#E9EDF4"/>
<path d="M358.17 388.228V383.447H353.499V388.228V393.021H358.17V388.228Z" fill="#3E79D6"/>
<path d="M372.209 364.286V359.506H367.525V364.286V369.092H372.209V364.286Z" fill="#3E79D6"/>
<path d="M372.209 407.389V402.596H367.525V407.389V412.182H372.209V407.389Z" fill="#3E79D6"/>
<path d="M386.247 378.666V373.873H381.563V378.666V383.447H386.247V378.666Z" fill="#3E79D6"/>
<path d="M390.918 450.479V445.698H386.247V440.917H381.563H376.892V445.698H372.209V450.479V455.285H376.892V450.479H381.563H386.247V455.285V460.066H390.918V455.285V450.479Z" fill="#E9EDF4"/>
<path d="M390.918 412.182H395.601V407.401H390.918V412.182Z" fill="#303538"/>
<path d="M400.285 369.092V364.286H395.601V369.092V373.873H400.285V369.092Z" fill="#3E79D6"/>
<path d="M400.285 412.182V407.389V402.596H395.601V407.389V412.182H400.285Z" fill="#3E79D6"/>
<path d="M400.285 431.343H395.601V426.55H390.918H386.247H381.563V431.343H386.247H390.918V436.112H395.601V440.917H400.285V436.112V431.343Z" fill="#E9EDF4"/>
<path d="M175.42 214.854H179.26V211.014H175.42H171.57V214.854H175.42Z" fill="#E9EDF4"/>
<path d="M179.26 214.853V218.703H183.11V214.853H179.26Z" fill="#E9EDF4"/>
<path d="M171.57 214.853H167.72V218.713H171.57V222.543H167.72H163.88H160.03H156.19V226.393H160.03V230.243H163.88V234.093V237.943H167.72V234.093V230.243V226.393H171.57V230.243H175.42V234.093V237.943H179.26V234.093V230.243V226.393H183.11V230.243H186.96V234.093H190.8V230.243V226.393H194.65V230.243V234.093H198.49H202.34V230.243H198.49V226.393V222.543H194.65V218.713H190.8V214.853H186.96H183.11V218.713H179.26V214.853H175.42H171.57Z" fill="#C5CBD3"/>
<path d="M194.65 218.704V222.544H198.49V218.704H194.65Z" fill="#E9EDF4"/>
<path d="M163.88 222.544H167.72H171.57V218.714H167.72V214.854H163.88V218.714H160.03H156.19V222.544H160.03H163.88Z" fill="#E9EDF4"/>
<path d="M148.49 218.704V222.544H152.34V218.704H148.49Z" fill="#E9EDF4"/>
<path d="M213.88 226.393H210.03H206.19V230.243V234.093V237.943H210.03V234.093H213.88V230.243H217.72V226.393V222.543H213.88V226.393Z" fill="#E9EDF4"/>
<path d="M140.8 226.393H144.65H148.49V222.543H144.65H140.8H136.96V226.393H140.8Z" fill="#E9EDF4"/>
<path d="M202.34 230.243V234.093V237.943V241.773H206.19V245.623H210.03H213.88V241.773H217.72V237.943V234.093V230.243H213.88V234.093H210.03V237.943H206.19V234.093V230.243V226.393H210.03H213.88V222.543H217.72V218.713H213.88V214.853H210.03H206.19V218.713H202.34V222.543V226.393V230.243Z" fill="white"/>
<path d="M198.49 230.243H202.34V226.393V222.543H198.49V226.393V230.243Z" fill="#E9EDF4"/>
<path d="M190.8 226.393V230.243H194.65V226.393H190.8Z" fill="#E9EDF4"/>
<path d="M152.34 230.243H156.19V234.093H160.03V237.943H163.88V234.093V230.243H160.03V226.393H156.19V222.543H152.34V226.393V230.243Z" fill="#E9EDF4"/>
<path d="M183.11 230.243V226.393H179.26V230.243V234.093V237.943H183.11V234.093H186.96V230.243H183.11Z" fill="#E9EDF4"/>
<path d="M175.42 234.094V230.244H171.57V226.394H167.72V230.244V234.094V237.944H171.57V241.774V245.624V249.484V253.314V257.164H175.42V253.314V249.484V245.624V241.774H179.26V237.944H175.42V234.094Z" fill="#E9EDF4"/>
<path d="M133.11 237.944V241.774V245.624V249.484V253.314V257.164V261.004V264.854V268.714H136.96V264.854H140.8V261.004V257.164V253.314V249.484V245.624V241.774V237.944V234.094H136.96V230.243H133.11V234.094V237.944Z" fill="#7D8389"/>
<path d="M133.11 234.093V230.243H129.26V234.093V237.943H133.11V234.093Z" fill="#E9EDF4"/>
<path d="M163.88 237.933V241.773H167.72V237.933H163.88Z" fill="#E9EDF4"/>
<path d="M152.34 241.773V245.623H156.19V241.773H152.34Z" fill="#E9EDF4"/>
<path d="M148.49 249.484V253.314V257.164H152.34V253.314V249.484V245.624H148.49V249.484Z" fill="#E9EDF4"/>
<path d="M171.57 249.473V237.933H167.72V241.773H163.88V237.933H160V234.083H156.19V230.243H152.34V222.573H148.49V226.393H137V222.573H133.11V226.393H129.26V230.243H137V234.083H140.8V264.853H137V268.703H133.11V276.393H140.8V272.573H144.65V268.733H156.19V257.163H160V245.573H163.85V249.473H167.69V261.003H171.54V249.473H171.57ZM152.34 249.473V257.163H148.49V245.573H152.34V241.773H156.19V245.573H152.34V249.473Z" fill="#C5CBD3"/>
<path d="M167.72 253.314V249.484H163.88V245.624H160.03V249.484V253.314V257.164H156.19V261.004V264.854V268.714H160.03H163.88V264.854H167.72V261.004V257.164V253.314Z" fill="#E9EDF4"/>
<path d="M133.11 264.854V261.004V257.164V253.314V249.484V245.624V241.774V237.944H129.26V241.774V245.624V249.484V253.314V257.164V261.004V264.854V268.714H133.11V264.854Z" fill="#C5CBD3"/>
<path d="M148.49 268.713H144.65V272.543H140.8V276.393H144.65H148.49V272.543H152.34H156.19V268.713H152.34H148.49Z" fill="#E9EDF4"/>
<path d="M129.26 268.704V272.544H133.11V268.704H129.26Z" fill="#E9EDF4"/>
<path d="M397.25 27.08V23.24H393.41H389.56V19.39V15.54H385.72V11.7H381.87V15.54H378.02V19.39H374.18V23.24V27.08H370.33V30.93H366.49V27.08V23.24H362.64V27.08H358.79V30.93H354.95V27.08V23.24H351.1V19.39V15.54L347.25 15.54V11.7V7.85V4H343.41L339.56 4V7.85H335.72V11.7V15.54H331.87V19.39H328.02V15.54V11.7V7.85V4H324.18V7.85V11.7V15.54V19.39H320.33V23.24H316.49V27.08V30.93V34.77H312.64V38.62V42.47V46.31V50.16V54V57.85V61.7V65.54H316.49V69.39V73.24V77.08H320.33V80.93H324.18V84.77V88.62H328.02V92.47H331.87H335.72V88.62H331.87V84.77V80.93H328.02V77.08H324.18V73.24V69.39H320.33V65.54V61.7V57.85V54H324.18V50.16V46.31V42.47V38.62V34.77V30.93V27.08V23.24H328.02V27.08V30.93V34.77V38.62H331.87V34.77V30.93H335.72V34.77H339.56V38.62V42.47H343.41V38.62V34.77V30.93V27.08H339.56V23.24V19.39V15.54H343.41V19.39V23.24H347.25V27.08V30.93V34.77V38.62V42.47H351.1V46.31V50.16H354.95V54V57.85H358.79V54L362.64 54V50.16H366.49H370.33V46.31H374.18V42.47V38.62H378.02V42.47V46.31H381.87V42.47V38.62V34.77V30.93V27.08V23.24L385.72 23.24V27.08V30.93V34.77V38.62H389.56V42.47V46.31H393.41V50.16V54V57.85V61.7V65.54V69.39V73.24H389.56V77.08H385.72V80.93V84.77V88.62H389.56V84.77H393.41V80.93V77.08H397.25V73.24V69.39H401.1V65.54V61.7V57.85V54V50.16V46.31V42.47V38.62V34.77V30.93H397.25V27.08Z" fill="#FF8110"/>
<path d="M389.56 65.54H385.72V69.39H389.56V65.54Z" fill="#FF8110"/>
<path d="M385.72 88.62H381.87V92.47H385.72V88.62Z" fill="#FF8110"/>
<path d="M385.72 80.93V77.08H389.56V73.24H393.41V46.31L389.56 46.31V38.62H385.72V23.24L381.87 23.24V46.31H378.02V38.62H374.18V46.31H370.33V50.16L362.64 50.16V54H358.79V57.85H354.95V50.16H351.1V42.47H347.25V23.24H343.41V15.54H339.56V27.08H343.41V42.47H339.56V34.74H335.72V30.93H331.87V38.62H328.02V23.24H324.18V54H320.33V69.39H324.18V57.85H328.02V69.39H324.18V77.08H328.02V80.93H331.87V88.62H335.72V92.47H339.56V84.74H335.72V65.54H331.87V46.31H335.72V50.16H339.56V65.54H347.25V69.39H362.64V80.93H370.33V77.08H378.02V84.74H374.18V92.44H381.87V88.62H385.72V80.93V80.93ZM389.56 69.39H385.72V65.54H389.56V69.39ZM385.72 50.16V57.85H381.87V50.16H385.72ZM343.41 46.31H347.25V50.16H343.41V46.31ZM366.49 73.24V65.54H370.33V57.85H374.18V69.39H370.33V73.24H366.49Z" fill="#FFE000"/>
<path d="M381.87 57.85H385.72V54V50.16H381.87V54V57.85Z" fill="white"/>
<path d="M374.18 84.7401H378.02V77.0801H370.33V80.9301H362.64V69.3901H347.25V65.5401H339.56V50.1601H335.72V46.3101H331.87V65.5401H335.72V84.7401H339.56V92.4401H374.18V84.7401ZM343.41 88.6201V84.7401H347.25V88.5901L343.41 88.6201Z" fill="white"/>
<path d="M374.18 69.39V65.54V61.7V57.85H370.33V61.7V65.54H366.49V69.39V73.24H370.33V69.39H374.18Z" fill="white"/>
<path d="M347.25 84.77H343.41V88.62H347.25V84.77Z" fill="#FFE000"/>
<path d="M347.25 46.3101H343.41V50.1601H347.25V46.3101Z" fill="#FF8110"/>
<path d="M328.02 65.54V61.7V57.85H324.18V61.7V65.54V69.39H328.02V65.54Z" fill="white"/>
<defs>
<clipPath id="clip0">
<rect width="300" height="300" fill="white" transform="translate(204 83)"/>
</clipPath>
</defs>
</svg>
