<svg width="225" height="26" viewBox="0 0 225 26" fill="none" xmlns="http://www.w3.org/2000/svg">
<path d="M23.4004 13L23.4004 1.17961e-05L27.5604 4.6858e-06L27.5604 13L23.4004 13Z" fill="#F2994A"/>
<path d="M23.4004 26L23.4004 13L27.5604 13L27.5604 26L23.4004 26Z" fill="#F2C94C"/>
<path d="M0 26L-5.68248e-07 13L4.16 13L4.16 26L0 26Z" fill="#A57BFF"/>
<path d="M0 13L-5.68248e-07 1.17961e-05L4.16 4.6858e-06L4.16 13L0 13Z" fill="#FF89D0"/>
<path d="M4.16016 22.1001L23.4001 22.1001L23.4001 26.0001L4.16016 26.0001L4.16016 22.1001Z" fill="#34E890"/>
<path d="M4.16016 0L23.4001 0L23.4001 3.9L4.16016 3.9L4.16016 0Z" fill="#EB5757"/>
<path d="M10.4613 7.89204H16.3864V9.28933H11.9124V11.7749H15.6474V13.1722H11.9124V15.8996H16.3864V17.2969H10.4613V7.89204Z" fill="white"/>
<path d="M10.4613 7.89204V7.37204H9.94134V7.89204H10.4613ZM16.3864 7.89204H16.9064V7.37204H16.3864V7.89204ZM16.3864 9.28933V9.80933H16.9064V9.28933H16.3864ZM11.9124 9.28933V8.76933H11.3924V9.28933H11.9124ZM11.9124 11.7749H11.3924V12.2949H11.9124V11.7749ZM15.6474 11.7749H16.1674V11.2549H15.6474V11.7749ZM15.6474 13.1722V13.6922H16.1674V13.1722H15.6474ZM11.9124 13.1722V12.6522H11.3924V13.1722H11.9124ZM11.9124 15.8996H11.3924V16.4196H11.9124V15.8996ZM16.3864 15.8996H16.9064V15.3796H16.3864V15.8996ZM16.3864 17.2969V17.8169H16.9064V17.2969H16.3864ZM10.4613 17.2969H9.94134V17.8169H10.4613V17.2969ZM10.4613 8.41204H16.3864V7.37204H10.4613V8.41204ZM15.8664 7.89204V9.28933H16.9064V7.89204H15.8664ZM16.3864 8.76933H11.9124V9.80933H16.3864V8.76933ZM11.3924 9.28933V11.7749H12.4324V9.28933H11.3924ZM11.9124 12.2949H15.6474V11.2549H11.9124V12.2949ZM15.1274 11.7749V13.1722H16.1674V11.7749H15.1274ZM15.6474 12.6522H11.9124V13.6922H15.6474V12.6522ZM11.3924 13.1722V15.8996H12.4324V13.1722H11.3924ZM11.9124 16.4196H16.3864V15.3796H11.9124V16.4196ZM15.8664 15.8996V17.2969H16.9064V15.8996H15.8664ZM16.3864 16.7769H10.4613V17.8169H16.3864V16.7769ZM10.9813 17.2969V7.89204H9.94134V17.2969H10.9813Z" fill="white"/>
<path d="M38.7628 12.3648V6.54905H44.5786H50.3944V7.37988V8.21071H46.2402H42.0861V9.87236V11.534H45.4094H48.7327V12.3648V13.1957H45.4094H42.0861V14.8573V16.519H46.2402H50.3944V17.3498V18.1806H44.5786H38.7628V12.3648ZM52.056 12.3648V6.54905H53.7177H55.3793V7.37988V8.21071H56.2102H57.041V9.04153V9.87236H57.8718H58.7026V10.7032V11.534H59.5335H60.3643V9.04153V6.54905H62.026H63.6876V12.3648V18.1806H62.026H60.3643V17.3498V16.519H59.5335H58.7026V15.6881V14.8573H57.8718H57.041V14.0265V13.1957H56.2102H55.3793V15.6881V18.1806H53.7177H52.056V12.3648ZM65.3493 9.87236V6.54905H67.0109H68.6726V9.04153V11.534H69.5034H70.3342V12.3648V13.1957H71.1651H71.9959V12.3648V11.534H72.8267H73.6575V9.04153V6.54905H75.3192H76.9808V9.87236V13.1957H76.15H75.3192V14.0265V14.8573H74.4884H73.6575V15.6881V16.519H72.8267H71.9959V17.3498V18.1806H71.1651H70.3342V17.3498V16.519H69.5034H68.6726V15.6881V14.8573H67.8417H67.0109V14.0265V13.1957H66.1801H65.3493V9.87236ZM80.3041 7.37988V6.54905H85.2891H90.2741V7.37988V8.21071H88.6124H86.9508V12.3648V16.519H88.6124H90.2741V17.3498V18.1806H85.2891H80.3041V17.3498V16.519H81.9658H83.6275V12.3648V8.21071H81.9658H80.3041V7.37988ZM91.9357 12.3648V6.54905H96.9207H101.906V7.37988V8.21071H102.736H103.567V10.7032V13.1957H101.906H100.244V14.0265V14.8573H101.075H101.906V15.6881V16.519H102.736H103.567V17.3498V18.1806H101.075H98.5823V17.3498V16.519H97.7515H96.9207V15.6881V14.8573H96.0899H95.259V16.519V18.1806H93.5974H91.9357V12.3648ZM100.244 9.87236V8.21071H97.7515H95.259V10.7032V13.1957H96.9207H98.5823V12.3648V11.534H99.4132H100.244V9.87236ZM106.891 7.37988V6.54905H111.045H115.199V7.37988V8.21071H116.03H116.861V12.3648V16.519H116.03H115.199V17.3498V18.1806H111.045H106.891V17.3498V16.519H106.06H105.229V12.3648V8.21071H106.06H106.891V7.37988ZM113.537 12.3648V8.21071H111.045H108.552V12.3648V16.519H111.045H113.537V12.3648ZM118.522 12.3648V6.54905H120.184H121.846V7.37988V8.21071H122.676H123.507V9.04153V9.87236H124.338H125.169V10.7032V11.534H126H126.83V9.04153V6.54905H128.492H130.154V12.3648V18.1806H128.492H126.83V17.3498V16.519H126H125.169V15.6881V14.8573H124.338H123.507V14.0265V13.1957H122.676H121.846V15.6881V18.1806H120.184H118.522V12.3648ZM131.815 12.3648V6.54905H137.631H143.447V7.37988V8.21071H139.293H135.139V9.87236V11.534H138.462H141.785V12.3648V13.1957H138.462H135.139V15.6881V18.1806H133.477H131.815V12.3648ZM145.109 12.3648V6.54905H150.094H155.079V7.37988V8.21071H155.909H156.74V10.7032V13.1957H155.079H153.417V14.0265V14.8573H154.248H155.079V15.6881V16.519H155.909H156.74V17.3498V18.1806H154.248H151.755V17.3498V16.519H150.924H150.094V15.6881V14.8573H149.263H148.432V16.519V18.1806H146.77H145.109V12.3648ZM153.417 9.87236V8.21071H150.924H148.432V10.7032V13.1957H150.094H151.755V12.3648V11.534H152.586H153.417V9.87236ZM160.064 7.37988V6.54905H165.049H170.033V7.37988V8.21071H168.372H166.71V12.3648V16.519H168.372H170.033V17.3498V18.1806H165.049H160.064V17.3498V16.519H161.725H163.387V12.3648V8.21071H161.725H160.064V7.37988ZM171.695 12.3648V6.54905H177.511H183.327V7.37988V8.21071H179.173H175.018V9.87236V11.534H178.342H181.665V12.3648V13.1957H178.342H175.018V14.8573V16.519H179.173H183.327V17.3498V18.1806H177.511H171.695V12.3648ZM184.988 12.3648V6.54905H186.65H188.312V7.37988V8.21071H189.143H189.973V9.04153V9.87236H190.804H191.635V10.7032V11.534H192.466H193.297V9.04153V6.54905H194.958H196.62V12.3648V18.1806H194.958H193.297V17.3498V16.519H192.466H191.635V15.6881V14.8573H190.804H189.973V14.0265V13.1957H189.143H188.312V15.6881V18.1806H186.65H184.988V12.3648ZM198.282 12.3648V6.54905H202.436H206.59V7.37988V8.21071H207.421H208.252V9.04153V9.87236H209.082H209.913V12.3648V14.8573H209.082H208.252V15.6881V16.519H207.421H206.59V17.3498V18.1806H202.436H198.282V12.3648ZM204.928 9.04153V8.21071H203.267H201.605V12.3648V16.519H203.267H204.928V15.6881V14.8573H205.759H206.59V12.3648V9.87236H205.759H204.928V9.04153Z" fill="white"/>
<path d="M214.898 16.519V14.8573H216.56H218.221V16.519V18.1806H216.56H214.898V16.519Z" fill="#34E890"/>
</svg>
